<?xml version="1.0" encoding="utf-8"?>
<!-- Generator: Adobe Illustrator 21.0.2, SVG Export Plug-In . SVG Version: 6.00 Build 0)  -->
<svg version="1.1"
	 id="svg2" xmlns:cc="http://creativecommons.org/ns#" xmlns:dc="http://purl.org/dc/elements/1.1/" xmlns:rdf="http://www.w3.org/1999/02/22-rdf-syntax-ns#" xmlns:svg="http://www.w3.org/2000/svg"
	 xmlns="http://www.w3.org/2000/svg" xmlns:xlink="http://www.w3.org/1999/xlink" x="0px" y="0px" viewBox="0 0 805.7 232"
	 style="enable-background:new 0 0 805.7 232;" xml:space="preserve">
<style type="text/css">
	.st0{clip-path:url(#SVGID_2_);}
	.st1{fill:#444444;}
</style>
<g id="g14">
	<g>
		<defs>
			<rect id="SVGID_1_" y="0" width="805.7" height="232"/>
		</defs>
		<clipPath id="SVGID_2_">
			<use xlink:href="#SVGID_1_"  style="overflow:visible;"/>
		</clipPath>
		<g id="g16" class="st0">
			<path id="path22" class="st1" d="M181.2,151.3l-62.1,35.9L57,151.3V79.6l62.1-35.9l62.1,35.9V151.3z M230,112.1l-18.1-9.6
				c-0.8-5.7-2.1-11.3-3.9-16.6l13.2-14.6C216.4,60.2,209.9,50,202,41l-20.6,4.4c-3-2.7-6.3-5.2-9.7-7.5l0.8-20.4
				c-10.8-5.9-22.6-10.1-35.2-12.2L124.3,22c-1.7-0.1-3.4-0.1-5.2-0.1c-1.7,0-3.5,0.1-5.2,0.1L101,5.3c-12.6,2.1-24.4,6.2-35.2,12.2
				l0.8,20.4c-3.4,2.3-6.6,4.8-9.7,7.5L36.3,41C28.3,50,21.8,60.2,17,71.3l13.2,14.6c-1.8,5.3-3.1,10.9-3.9,16.6l-18.1,9.6
				c0,0.9,0,1.8,0,2.7c0,10.7,1.5,20.9,4.3,30.7l18.7,2.6c2.6,7.1,6.1,13.9,10.4,20.1l-7.3,18c6.8,8.1,14.8,15.2,23.6,21l15.7-9.8
				c7.6,4.2,15.8,7.4,24.4,9.4l5.7,17.8c5,0.7,10.2,1.1,15.4,1.1c5.2,0,10.4-0.4,15.4-1.1l5.7-17.8c8.7-2,16.9-5.2,24.4-9.4
				l15.7,9.8c8.8-5.9,16.8-13,23.6-21l-7.3-18c4.2-6.2,7.7-12.9,10.3-20.1l18.7-2.6c2.8-9.7,4.3-20,4.3-30.7
				C230,113.8,230,113,230,112.1"/>
			<path id="path24" class="st1" d="M153.6,78.6l-46.3,26.8l11.8,6.8l46.3-26.8L153.6,78.6"/>
			<path id="path26" class="st1" d="M136.3,68.6L90,95.4l11.8,6.8l46.3-26.8L136.3,68.6"/>
			<path id="path28" class="st1" d="M119.1,58.7L72.7,85.4l11.8,6.8l46.3-26.8L119.1,58.7"/>
			<path id="path30" class="st1" d="M133.6,163.6v-53.5l-11.8,6.8v53.5L133.6,163.6"/>
			<path id="path32" class="st1" d="M116.4,170.4v-53.5l-11.8-6.8v53.5L116.4,170.4"/>
			<path id="path34" class="st1" d="M150.9,153.6v-53.5l-11.8,6.8v53.5L150.9,153.6"/>
			<path id="path36" class="st1" d="M168.2,143.6V90.1L156.3,97v53.5L168.2,143.6"/>
			<path id="path38" class="st1" d="M99.1,160.4v-53.5l-11.8-6.8v53.5L99.1,160.4"/>
			<path id="path40" class="st1" d="M81.9,150.5V97L70,90.1v53.5L81.9,150.5"/>
			<path id="path42" class="st1" d="M338.2,166.2c-16.1,0-28.3-4.5-36.7-13.4c-8.4-8.9-12.6-21.6-12.6-38.1c0-8.2,1.3-15.5,3.9-21.9
				c2.6-6.4,6.1-11.8,10.6-16.3c4.5-4.4,9.8-7.8,16-10.1c6.2-2.3,12.9-3.4,20.1-3.4c4.2,0,8,0.3,11.4,0.9c3.4,0.6,6.4,1.3,9,2.1
				c2.6,0.8,4.7,1.6,6.4,2.5c1.7,0.9,2.9,1.5,3.7,2l-6.4,18c-3-1.6-6.6-3-10.6-4.1c-4-1.1-8.6-1.7-13.8-1.7c-3.4,0-6.8,0.6-10.1,1.7
				c-3.3,1.1-6.2,3-8.7,5.5c-2.5,2.5-4.5,5.8-6.1,9.8c-1.5,4-2.3,8.8-2.3,14.6c0,4.6,0.5,8.8,1.5,12.8c1,3.9,2.6,7.3,4.9,10.2
				c2.2,2.9,5.2,5.1,8.8,6.8c3.6,1.7,8,2.5,13.1,2.5c3.2,0,6.1-0.2,8.7-0.6c2.6-0.4,4.9-0.8,6.8-1.4c2-0.5,3.8-1.1,5.3-1.8
				c1.5-0.7,2.9-1.3,4.1-1.9l6.1,17.8c-3.1,1.9-7.6,3.6-13.3,5.1C352.3,165.5,345.7,166.2,338.2,166.2"/>
			<path id="path44" class="st1" d="M438.9,105.9c4-6.7,7.8-13.5,11.4-20.2c3.6-6.7,6.9-13.5,10-20.3h24.5c-5.4,10.7-11,21-16.8,31
				c-5.8,10-11.9,20-18.4,30.1v37.8h-22.3v-37.5c-6.5-10.1-12.6-20.2-18.5-30.2C403,86.4,397.4,76,392,65.4h25.8
				c3,6.8,6.3,13.6,9.8,20.3C431.1,92.5,434.9,99.2,438.9,105.9"/>
			<path id="path46" class="st1" d="M549.3,166.2c-16.1,0-28.3-4.5-36.7-13.4c-8.4-8.9-12.6-21.6-12.6-38.1c0-8.2,1.3-15.5,3.9-21.9
				c2.6-6.4,6.1-11.8,10.6-16.3c4.5-4.4,9.8-7.8,16-10.1c6.2-2.3,12.9-3.4,20.1-3.4c4.2,0,8,0.3,11.4,0.9c3.4,0.6,6.4,1.3,9,2.1
				c2.6,0.8,4.7,1.6,6.4,2.5c1.7,0.9,2.9,1.5,3.7,2l-6.4,18c-3-1.6-6.6-3-10.6-4.1c-4-1.1-8.6-1.7-13.8-1.7c-3.4,0-6.8,0.6-10.1,1.7
				c-3.3,1.1-6.2,3-8.7,5.5c-2.5,2.5-4.5,5.8-6.1,9.8c-1.5,4-2.3,8.8-2.3,14.6c0,4.6,0.5,8.8,1.5,12.8c1,3.9,2.6,7.3,4.8,10.2
				c2.2,2.9,5.2,5.1,8.8,6.8c3.6,1.7,8,2.5,13.1,2.5c3.2,0,6.1-0.2,8.7-0.6c2.6-0.4,4.9-0.8,6.8-1.4c2-0.5,3.8-1.1,5.3-1.8
				c1.5-0.7,2.9-1.3,4.1-1.9l6.1,17.8c-3.1,1.9-7.6,3.6-13.3,5.1C563.4,165.5,556.8,166.2,549.3,166.2"/>
			<path id="path48" class="st1" d="M676.4,145.1v19.1h-66V65.4h22.3v79.7H676.4"/>
			<path id="path50" class="st1" d="M704.3,164.2V65.4h66.8v18.7h-44.5v19.4h39.5v18.3h-39.5v23.8h47.8v18.7H704.3"/>
		</g>
	</g>
</g>
</svg>
