<svg xmlns="http://www.w3.org/2000/svg" xmlns:xlink="http://www.w3.org/1999/xlink" id="Capa_1" x="0" y="0" version="1.1" viewBox="0 0 58 58" xml:space="preserve" style="enable-background:new 0 0 58 58"><g><g><polygon style="fill:#f05565" points="46.5 4 46.5 8 39.5 8 39.5 4 15.5 4 15.5 8 8.5 8 8.5 4 .5 4 .5 15 54.5 15 54.5 4"/><polygon style="fill:#efebde" points="8.5 15 .5 15 .5 58 54.5 58 54.5 15 46.5 15 39.5 15 15.5 15"/><path style="fill:#d5d0bb" d="M37.5,22h-2h-7h-2h-7h-2h-9v9v2v7v2v9h9h2h7h2h7h2h9v-9v-2v-7v-2v-9H37.5z M28.5,24h7v7h-7V24z M35.5,40h-7v-7h7V40z M19.5,33h7v7h-7V33z M19.5,24h7v7h-7V24z M10.5,24h7v7h-7V24z M10.5,33h7v7h-7V33z M17.5,49h-7v-7h7V49z M26.5,49h-7v-7h7V49z M35.5,49h-7v-7h7V49z M44.5,49h-7v-7h7V49z M44.5,40h-7v-7h7V40z M37.5,31v-7h7v7H37.5z"/><rect style="fill:#36495e" width="7" height="8" x="8.5"/><rect style="fill:#36495e" width="7" height="8" x="39.5"/><rect style="fill:#7f6e5d" width="7" height="7" x="19.5" y="33"/></g><g><circle style="fill:#76c9b0" cx="46.5" cy="47" r="11"/><path style="fill:#fff" d="M52.5,46h-5v-5c0-0.552-0.447-1-1-1s-1,0.448-1,1v6c0,0.552,0.447,1,1,1h6c0.553,0,1-0.448,1-1 S53.053,46,52.5,46z"/></g></g></svg>