<svg id="Layer_1" data-name="Layer 1" xmlns="http://www.w3.org/2000/svg" viewBox="0 0 420 420"><defs><style>.cls-1,.cls-2{fill:#232122;}.cls-1,.cls-3,.cls-4,.cls-5{fill-rule:evenodd;}.cls-3{fill:#e42814;}.cls-4{fill:#004698;}.cls-5{fill:#f7c000;}.cls-6{fill:#242425;}.cls-7{fill:#6f6f6f;}.cls-8{fill:#ff3e00;}.cls-9{fill:#6abc00;}.cls-10{fill:#00a7f2;}.cls-11{fill:#ffb700;}</style></defs><title>MLH-microsoft-logo-outline-color</title><path class="cls-1" d="M56.25,233.6a8.79,8.79,0,0,1,1,.6,2.07,2.07,0,0,1,.6,1,5,5,0,0,1,.2,1.2V251c0,.1,0,.3-.1.3a.37.37,0,0,1-.3.1h-3.6a.35.35,0,0,1-.4-.4V237.8h-2.9V251c0,.1,0,.3-.1.3a.35.35,0,0,1-.3.1H47.06c-.1,0-.3,0-.3-.1a.37.37,0,0,1-.1-.3V237.8h-2.9V251a.47.47,0,0,1-.5.5h-3.6a.47.47,0,0,1-.5-.5V233.9a.47.47,0,0,1,.5-.5H55.25A1.23,1.23,0,0,1,56.25,233.6Z"/><path class="cls-1" d="M74.35,233.3a5,5,0,0,1,1.2.2,8.79,8.79,0,0,1,1,.6,2.07,2.07,0,0,1,.6,1,5,5,0,0,1,.2,1.2v14.59c0,.1,0,.3-.1.3a.37.37,0,0,1-.3.1h-3.6c-.1,0-.3,0-.3-.1a.37.37,0,0,1-.1-.3v-4.6c0-.1,0-.3-.1-.3a.37.37,0,0,0-.3-.1h-5.1c-.1,0-.3,0-.3.1a.37.37,0,0,0-.1.3v4.6a.47.47,0,0,1-.5.5H63a.47.47,0,0,1-.5-.5V236.3a5,5,0,0,1,.2-1.2,8.79,8.79,0,0,1,.6-1,2.07,2.07,0,0,1,1-.6,2.54,2.54,0,0,1,1.2-.2Zm-1.6,8.59V237.4h-6.1v4.49Z"/><path class="cls-1" d="M93.64,233.5a.37.37,0,0,1,.1.3v14.59a5,5,0,0,1-.2,1.2,8.79,8.79,0,0,1-.6,1,2.07,2.07,0,0,1-1,.6,2.54,2.54,0,0,1-1.2.2h-7.8a5,5,0,0,1-1.2-.2,8.79,8.79,0,0,1-1-.6,2.07,2.07,0,0,1-.6-1,2.54,2.54,0,0,1-.2-1.2v-5.5a.47.47,0,0,1,.5-.5H84a.47.47,0,0,1,.5.5v3.7a.35.35,0,0,0,.4.4h3.7c.1,0,.3,0,.3-.1a.37.37,0,0,0,.1-.3V233.9c0-.1,0-.3.1-.3a.37.37,0,0,1,.3-.1H93A.44.44,0,0,1,93.64,233.5Z"/><path class="cls-1" d="M109.93,233.3a5,5,0,0,1,1.2.2,8.79,8.79,0,0,1,1,.6,2.07,2.07,0,0,1,.6,1,5,5,0,0,1,.2,1.2v12a5,5,0,0,1-.2,1.2,8.79,8.79,0,0,1-.6,1,2.07,2.07,0,0,1-1,.6,2.54,2.54,0,0,1-1.2.2h-9.09a5,5,0,0,1-1.2-.2,8.79,8.79,0,0,1-1-.6,2.07,2.07,0,0,1-.6-1,2.54,2.54,0,0,1-.2-1.2v-12a5,5,0,0,1,.2-1.2,3.33,3.33,0,0,1,.6-1,2.07,2.07,0,0,1,1-.6,2.54,2.54,0,0,1,1.2-.2Zm-1.6,4.4h-6.09V247h6.09Z"/><path class="cls-1" d="M132.73,251a.19.19,0,0,1,0,.3c-.1.1-.1.1-.3.1h-4.1a.6.6,0,0,1-.4-.1l-.3-.3-2.7-4.9c0-.1-.1-.1-.2-.1h-3.1c-.1,0-.1,0-.1.1v4.8a.47.47,0,0,1-.5.5h-3.6a.47.47,0,0,1-.5-.5V233.8a.47.47,0,0,1,.5-.5h11.7a5,5,0,0,1,1.2.2,8.79,8.79,0,0,1,1,.6,2.07,2.07,0,0,1,.6,1,2.54,2.54,0,0,1,.2,1.2v6.79a3,3,0,0,1-.6,1.8A3.27,3.27,0,0,1,130,246h-.1c-.1,0-.1.1-.1.2v.1Zm-5.1-13.49h-6.2v4.39h6.2Z"/><path class="cls-1" d="M157,247a.35.35,0,0,1,.4.4v3.4c0,.1,0,.3-.1.3a.37.37,0,0,1-.3.1h-11.1a.47.47,0,0,1-.5-.5V233.6a.47.47,0,0,1,.5-.5h3.6a.47.47,0,0,1,.5.5v12.69a.35.35,0,0,0,.4.4H157Z"/><path class="cls-1" d="M173.71,233.5a.37.37,0,0,1,.1.3v3.3a.35.35,0,0,1-.4.4h-8.59c-.1,0-.1,0-.1.1v2.8c0,.1,0,.1.1.1h7.39a.39.39,0,0,1,.3.09.39.39,0,0,1,.1.31v2.59c0,.1,0,.3-.1.3a.37.37,0,0,1-.3.1h-7.39c-.1,0-.1,0-.1.1v2.8c0,.1,0,.1.1.1h8.59c.1,0,.3,0,.3.1a.37.37,0,0,1,.1.3v3.2c0,.1,0,.3-.1.3a.37.37,0,0,1-.3.1H160.62a.47.47,0,0,1-.5-.5V233.3c0-.1,0-.3.1-.3a.37.37,0,0,1,.3-.1h12.79A1.89,1.89,0,0,0,173.71,233.5Z"/><path class="cls-1" d="M190.11,233.3a5,5,0,0,1,1.2.2,8.79,8.79,0,0,1,1,.6,2.07,2.07,0,0,1,.6,1,5,5,0,0,1,.2,1.2v14.59c0,.1,0,.3-.1.3a.37.37,0,0,1-.3.1H189c-.1,0-.3,0-.3-.1a.37.37,0,0,1-.1-.3v-4.6c0-.1,0-.3-.1-.3a.37.37,0,0,0-.3-.1H183c-.1,0-.3,0-.3.1a.37.37,0,0,0-.1.3v4.6a.47.47,0,0,1-.5.5h-3.6a.47.47,0,0,1-.5-.5V236.3a5,5,0,0,1,.2-1.2,8.79,8.79,0,0,1,.6-1,2.07,2.07,0,0,1,1-.6,2.54,2.54,0,0,1,1.2-.2Zm-1.6,8.59V237.4h-6.1v4.49Z"/><path class="cls-1" d="M212.2,241.7a.35.35,0,0,1,.1.3v6.39a5,5,0,0,1-.2,1.2,8.79,8.79,0,0,1-.6,1,2.07,2.07,0,0,1-1,.6,2.54,2.54,0,0,1-1.2.2h-9.1a5,5,0,0,1-1.2-.2,8.79,8.79,0,0,1-1-.6,2.07,2.07,0,0,1-.6-1,2.54,2.54,0,0,1-.2-1.2v-12a5,5,0,0,1,.2-1.2,3.33,3.33,0,0,1,.6-1,2.07,2.07,0,0,1,1-.6,2.54,2.54,0,0,1,1.2-.2h10.7c.1,0,.3,0,.3.1a.37.37,0,0,1,.1.3v3.4c0,.1,0,.3-.1.3a.37.37,0,0,1-.3.1h-8.6c-.1,0-.3,0-.3.1a.37.37,0,0,0-.1.3v8.39a.35.35,0,0,0,.4.4h5.1a.35.35,0,0,0,.4-.4v-4.5c0-.1,0-.3.1-.3a.39.39,0,0,1,.3-.09h3.6A.69.69,0,0,1,212.2,241.7Z"/><path class="cls-1" d="M231.19,233.5a.37.37,0,0,1,.1.3v14.59a5,5,0,0,1-.2,1.2,8.79,8.79,0,0,1-.6,1,2.07,2.07,0,0,1-1,.6,2.54,2.54,0,0,1-1.2.2H219.2a5,5,0,0,1-1.2-.2,8.79,8.79,0,0,1-1-.6,2.07,2.07,0,0,1-.6-1,2.54,2.54,0,0,1-.2-1.2V233.8a.47.47,0,0,1,.5-.5h3.6a.47.47,0,0,1,.5.5v12.69a.35.35,0,0,0,.4.4h5.09a.35.35,0,0,0,.4-.4V233.8c0-.1,0-.3.1-.3a.37.37,0,0,1,.3-.1h3.6A.4.4,0,0,1,231.19,233.5Z"/><path class="cls-1" d="M249.09,233.5a.37.37,0,0,1,.1.3v3.3a.35.35,0,0,1-.4.4h-8.6c-.1,0-.1,0-.1.1v2.8c0,.1,0,.1.1.1h7.4a.39.39,0,0,1,.3.09.39.39,0,0,1,.1.31v2.59c0,.1,0,.3-.1.3a.37.37,0,0,1-.3.1h-7.4c-.1,0-.1,0-.1.1v2.8c0,.1,0,.1.1.1h8.6c.1,0,.3,0,.3.1a.37.37,0,0,1,.1.3v3.2c0,.1,0,.3-.1.3a.37.37,0,0,1-.3.1H236a.47.47,0,0,1-.5-.5V233.3c0-.1,0-.3.1-.3a.37.37,0,0,1,.3-.1h12.8A1.89,1.89,0,0,0,249.09,233.5Z"/><path class="cls-1" d="M276.78,233.3c.1,0,.3,0,.3.1a.37.37,0,0,1,.1.3v17.09c0,.1,0,.3-.1.3a.37.37,0,0,1-.3.1h-3.6c-.1,0-.3,0-.3-.1a.37.37,0,0,1-.1-.3v-6a.35.35,0,0,0-.4-.4h-5.1c-.1,0-.3,0-.3.1a.37.37,0,0,0-.1.3v6a.47.47,0,0,1-.5.5h-3.6a.47.47,0,0,1-.5-.5V233.7a.47.47,0,0,1,.5-.5h3.6a.47.47,0,0,1,.5.5v5.8a.47.47,0,0,0,.5.5h5.1a.35.35,0,0,0,.4-.4v-5.8c0-.1,0-.3.1-.3a.37.37,0,0,1,.3-.1h3.5Z"/><path class="cls-1" d="M293.47,233.3a5,5,0,0,1,1.2.2,8.79,8.79,0,0,1,1,.6,2.07,2.07,0,0,1,.6,1,5,5,0,0,1,.2,1.2v14.59c0,.1,0,.3-.1.3a.37.37,0,0,1-.3.1h-3.6c-.1,0-.3,0-.3-.1a.37.37,0,0,1-.1-.3v-4.6c0-.1,0-.3-.1-.3a.37.37,0,0,0-.3-.1h-5.1c-.1,0-.3,0-.3.1a.37.37,0,0,0-.1.3v4.6a.47.47,0,0,1-.5.5h-3.59a.47.47,0,0,1-.5-.5V236.3a4.57,4.57,0,0,1,.2-1.2,7.54,7.54,0,0,1,.6-1,2,2,0,0,1,1-.6,2.48,2.48,0,0,1,1.19-.2Zm-1.5,8.59V237.4h-6.1v4.49Z"/><path class="cls-1" d="M305.17,237.8a.37.37,0,0,0-.1.3v8.39a.35.35,0,0,0,.4.4h8.29c.1,0,.3,0,.3.1a.37.37,0,0,1,.1.3v3.4c0,.1,0,.3-.1.3a.37.37,0,0,1-.3.1H303.47a5,5,0,0,1-1.2-.2,8.79,8.79,0,0,1-1-.6,2.07,2.07,0,0,1-.6-1,2.54,2.54,0,0,1-.2-1.2V236a5,5,0,0,1,.2-1.2,8.79,8.79,0,0,1,.6-1,2.07,2.07,0,0,1,1-.6,2.54,2.54,0,0,1,1.2-.2h10.29c.1,0,.3,0,.3.1a.37.37,0,0,1,.1.3v3.4c0,.1,0,.3-.1.3a.37.37,0,0,1-.3.1h-8.29C305.37,237.7,305.27,237.8,305.17,237.8Z"/><path class="cls-1" d="M328.66,240.9c-.1.1-.1.1,0,.19l6,9.9a.19.19,0,0,1,0,.3c-.1.1-.1.1-.3.1h-4.3a.6.6,0,0,1-.4-.1l-.3-.3-3.9-7c-.1-.1-.1-.1-.1,0l-2.1,2.3a.52.52,0,0,0-.2.4.9.9,0,0,0-.1.5V251a.47.47,0,0,1-.5.5H319a.47.47,0,0,1-.5-.5V233.9a.47.47,0,0,1,.5-.5h3.6a.47.47,0,0,1,.5.5v7.69l6.7-7.79a1.38,1.38,0,0,1,.4-.3.76.76,0,0,1,.4-.1h4.3c.1,0,.2,0,.2.1a.37.37,0,0,1-.1.3Z"/><rect class="cls-2" x="337.96" y="233.3" width="4.6" height="18.09" rx="0.5"/><path class="cls-1" d="M360,233.6a8.79,8.79,0,0,1,1,.6,2.07,2.07,0,0,1,.6,1,2.54,2.54,0,0,1,.2,1.2V251c0,.1,0,.3-.1.3a.37.37,0,0,1-.3.1h-3.6a.35.35,0,0,1-.4-.4V238.3a.35.35,0,0,0-.4-.4h-5.1c-.1,0-.3,0-.3.1s-.1.2-.1.3V251a.47.47,0,0,1-.5.5h-3.6a.47.47,0,0,1-.5-.5V233.9a.47.47,0,0,1,.5-.5h11.7A1.08,1.08,0,0,1,360,233.6Z"/><path class="cls-1" d="M380.84,241.7a.35.35,0,0,1,.1.3v6.39a5,5,0,0,1-.2,1.2,8.79,8.79,0,0,1-.6,1,2.07,2.07,0,0,1-1,.6,2.54,2.54,0,0,1-1.2.2h-9.1a5,5,0,0,1-1.19-.2,8.79,8.79,0,0,1-1-.6,2.07,2.07,0,0,1-.6-1,2.54,2.54,0,0,1-.2-1.2v-12a5,5,0,0,1,.2-1.2,3.33,3.33,0,0,1,.6-1,2.07,2.07,0,0,1,1-.6,2.52,2.52,0,0,1,1.19-.2h10.7c.1,0,.3,0,.3.1a.37.37,0,0,1,.1.3v3.4c0,.1,0,.3-.1.3a.37.37,0,0,1-.3.1h-8.6c-.1,0-.3,0-.3.1a.37.37,0,0,0-.1.3v8.39a.35.35,0,0,0,.4.4H376a.35.35,0,0,0,.4-.4v-4.5c0-.1,0-.3.1-.3a.39.39,0,0,1,.3-.09h3.6A.49.49,0,0,1,380.84,241.7Z"/><path class="cls-3" d="M158,119a21.26,21.26,0,0,0-4.1-6,19.38,19.38,0,0,0-6-4.1,20.9,20.9,0,0,0-7.4-1.6H42.16a2.88,2.88,0,0,0-3.2,3.2V221.2c0,2.1,1,3.1,3.1,3.1H64.55c2.1,0,3.1-1,3.1-3.1V135H85.94V221.2a3.07,3.07,0,0,0,3.1,3.1h20.59a2.72,2.72,0,0,0,2.1-.9,3.29,3.29,0,0,0,.8-2.2V135h18.3V221.2a3.29,3.29,0,0,0,.8,2.2,2.58,2.58,0,0,0,2.1.9h22.69a3.07,3.07,0,0,0,3.1-3.1V126.43A18.46,18.46,0,0,0,158,119Z"/><path class="cls-4" d="M260.58,196.81a2.79,2.79,0,0,0-2.2-.9v.1H211.1a3.09,3.09,0,0,1-2.3-.8,2.7,2.7,0,0,1-1-2.2V110.64c0-2.1-1.1-3.2-3.3-3.2H180.71c-2.2,0-3.3,1.1-3.3,3.2V221.2c0,2.1,1.1,3.2,3.3,3.2h77.67a2.94,2.94,0,0,0,2.2-.9,3.34,3.34,0,0,0,.9-2.3V199.11A3.17,3.17,0,0,0,260.58,196.81Z"/><path class="cls-5" d="M380,108.34a3.17,3.17,0,0,0-2.3-.9H353.55a3.17,3.17,0,0,0-2.3.9,3,3,0,0,0-1,2.3v37.49a3.08,3.08,0,0,1-3.2,3.2H313.16c-1.93,0-3-.9-3.19-2.53V110.64c0-2.1-1.1-3.2-3.3-3.2H282.58c-2.2,0-3.3,1.1-3.3,3.2V221.5c0,2.1,1.1,3.2,3.3,3.2h24.09c2.2,0,3.3-1.1,3.3-3.2V182.1a3.21,3.21,0,0,1,.9-1.48,3.52,3.52,0,0,1,2.29-.8h33.89a2.93,2.93,0,0,1,3.2,3V221.5a3.26,3.26,0,0,0,1,2.3,3.17,3.17,0,0,0,2.3.9h24.19a3.17,3.17,0,0,0,2.3-.9,3,3,0,0,0,1-2.3V110.64A3.26,3.26,0,0,0,380,108.34Z"/><path class="cls-6" d="M75.16,301.51a3.16,3.16,0,0,1-1.23,2.65,5.35,5.35,0,0,1-3.34.95,8.44,8.44,0,0,1-3.52-.59v-1.44a10,10,0,0,0,3.57.72,3.69,3.69,0,0,0,2.25-.57,1.85,1.85,0,0,0,.76-1.58,2,2,0,0,0-.27-1.09,2.55,2.55,0,0,0-.9-.79,12,12,0,0,0-1.91-.81A6.1,6.1,0,0,1,68,297.43a3.36,3.36,0,0,1-.77-2.29,2.83,2.83,0,0,1,1.12-2.36,4.61,4.61,0,0,1,3-.88,8.64,8.64,0,0,1,3.52.7l-.46,1.3a8.06,8.06,0,0,0-3.1-.67,3,3,0,0,0-1.85.51,1.7,1.7,0,0,0-.67,1.42,2.09,2.09,0,0,0,.25,1.09,2.27,2.27,0,0,0,.83.79,11,11,0,0,0,1.79.78,7.08,7.08,0,0,1,2.78,1.55A3,3,0,0,1,75.16,301.51Z"/><path class="cls-6" d="M82.05,305.11a4.2,4.2,0,0,1-1.72-.35,3.19,3.19,0,0,1-1.3-1.07h-.11a13,13,0,0,1,.11,1.6v4H77.57v-14h1.18l.21,1.32H79a3.39,3.39,0,0,1,1.31-1.15,4,4,0,0,1,1.71-.35,3.58,3.58,0,0,1,3,1.31,5.82,5.82,0,0,1,1,3.68A5.68,5.68,0,0,1,85,303.79,3.57,3.57,0,0,1,82.05,305.11Zm-.21-8.75a2.57,2.57,0,0,0-2.14.82,4.18,4.18,0,0,0-.67,2.6v.33a4.82,4.82,0,0,0,.67,2.9,2.59,2.59,0,0,0,2.17.88,2.26,2.26,0,0,0,2-1,4.84,4.84,0,0,0,.71-2.79,4.66,4.66,0,0,0-.71-2.77A2.33,2.33,0,0,0,81.84,296.36Z"/><path class="cls-6" d="M96.91,300.11a5.34,5.34,0,0,1-1.18,3.68,4.19,4.19,0,0,1-3.28,1.32,4.32,4.32,0,0,1-2.3-.61,4,4,0,0,1-1.54-1.74,6,6,0,0,1-.55-2.65,5.27,5.27,0,0,1,1.18-3.67,4.14,4.14,0,0,1,3.27-1.32,4.05,4.05,0,0,1,3.21,1.35A5.25,5.25,0,0,1,96.91,300.11Zm-7.34,0a4.59,4.59,0,0,0,.74,2.81,2.92,2.92,0,0,0,4.35,0,4.57,4.57,0,0,0,.74-2.81,4.49,4.49,0,0,0-.74-2.79,3,3,0,0,0-4.36,0A4.58,4.58,0,0,0,89.57,300.11Z"/><path class="cls-6" d="M106.06,304.93V298.7a2.57,2.57,0,0,0-.53-1.76,2.22,2.22,0,0,0-1.68-.58,2.76,2.76,0,0,0-2.22.82,4.11,4.11,0,0,0-.7,2.7v5.05H99.47V295.3h1.19l.23,1.32H101a3,3,0,0,1,1.26-1.11,4.1,4.1,0,0,1,1.8-.39,3.65,3.65,0,0,1,2.62.84,3.57,3.57,0,0,1,.88,2.69v6.28Z"/><path class="cls-6" d="M116.73,302.3a2.42,2.42,0,0,1-1,2.08,4.77,4.77,0,0,1-2.81.73,6,6,0,0,1-3-.61v-1.35a7.14,7.14,0,0,0,1.49.55,6,6,0,0,0,1.53.2,3.53,3.53,0,0,0,1.76-.36,1.21,1.21,0,0,0,.62-1.11,1.24,1.24,0,0,0-.49-1,8,8,0,0,0-1.9-.94,10,10,0,0,1-1.92-.88,2.59,2.59,0,0,1-.84-.84,2.34,2.34,0,0,1,.68-3,4.51,4.51,0,0,1,2.63-.68,7.54,7.54,0,0,1,3,.64l-.52,1.18a7,7,0,0,0-2.63-.6,3,3,0,0,0-1.56.33,1,1,0,0,0-.53.9,1.14,1.14,0,0,0,.2.66,1.84,1.84,0,0,0,.64.51,12.59,12.59,0,0,0,1.68.72,6.2,6.2,0,0,1,2.32,1.25A2.23,2.23,0,0,1,116.73,302.3Z"/><path class="cls-6" d="M127.42,300.11a5.34,5.34,0,0,1-1.19,3.68,4.18,4.18,0,0,1-3.28,1.32,4.29,4.29,0,0,1-2.29-.61,4,4,0,0,1-1.55-1.74,6.12,6.12,0,0,1-.54-2.65,5.27,5.27,0,0,1,1.18-3.67,4.14,4.14,0,0,1,3.27-1.32,4.08,4.08,0,0,1,3.21,1.35A5.3,5.3,0,0,1,127.42,300.11Zm-7.34,0a4.59,4.59,0,0,0,.74,2.81,2.57,2.57,0,0,0,2.17,1,2.61,2.61,0,0,0,2.18-1,4.57,4.57,0,0,0,.74-2.81,4.49,4.49,0,0,0-.74-2.79,3,3,0,0,0-4.36,0A4.51,4.51,0,0,0,120.08,300.11Z"/><path class="cls-6" d="M134.37,295.12a5.68,5.68,0,0,1,1.15.11l-.2,1.35a4.83,4.83,0,0,0-1-.13,2.57,2.57,0,0,0-2,.95,3.42,3.42,0,0,0-.83,2.36v5.17H130V295.3h1.2l.17,1.78h.07a4.36,4.36,0,0,1,1.29-1.45A2.9,2.9,0,0,1,134.37,295.12Z"/><path class="cls-6" d="M141.39,305.11a4.47,4.47,0,0,1-3.37-1.3,5.06,5.06,0,0,1-1.23-3.62,5.57,5.57,0,0,1,1.15-3.7,3.81,3.81,0,0,1,3.08-1.37,3.64,3.64,0,0,1,2.86,1.19,4.62,4.62,0,0,1,1.06,3.15v.92H138.3a3.76,3.76,0,0,0,.86,2.57,2.94,2.94,0,0,0,2.29.88,7.63,7.63,0,0,0,3.07-.65v1.3a6.72,6.72,0,0,1-1.46.48A8,8,0,0,1,141.39,305.11Zm-.39-8.77a2.4,2.4,0,0,0-1.85.76,3.46,3.46,0,0,0-.81,2.09h5a3.2,3.2,0,0,0-.61-2.11A2.17,2.17,0,0,0,141,296.34Z"/><path class="cls-6" d="M154,303.64h-.08a3.42,3.42,0,0,1-3,1.47,3.58,3.58,0,0,1-2.94-1.29,5.72,5.72,0,0,1-1.05-3.68,5.8,5.8,0,0,1,1.05-3.7,3.56,3.56,0,0,1,2.94-1.32,3.49,3.49,0,0,1,3,1.43H154l-.06-.7,0-.67v-3.92h1.46v13.67h-1.19Zm-2.92.25a2.64,2.64,0,0,0,2.17-.82,4.08,4.08,0,0,0,.67-2.62v-.31a4.86,4.86,0,0,0-.68-2.92,2.6,2.6,0,0,0-2.18-.88,2.24,2.24,0,0,0-2,1,5,5,0,0,0-.68,2.82,4.71,4.71,0,0,0,.68,2.79A2.3,2.3,0,0,0,151.06,303.89Z"/><path class="cls-6" d="M163.35,292.08H167a6.85,6.85,0,0,1,3.7.77,2.69,2.69,0,0,1,1.14,2.41,2.78,2.78,0,0,1-.64,1.89,3.08,3.08,0,0,1-1.85,1v.09c1.95.33,2.92,1.36,2.92,3.08a3.31,3.31,0,0,1-1.16,2.68,4.93,4.93,0,0,1-3.26,1h-4.48Zm1.49,5.5h2.46a4,4,0,0,0,2.28-.49,1.93,1.93,0,0,0,.69-1.68,1.68,1.68,0,0,0-.77-1.56,4.79,4.79,0,0,0-2.46-.48h-2.2Zm0,1.27v4.81h2.68a3.79,3.79,0,0,0,2.35-.61,2.21,2.21,0,0,0,.78-1.88,2,2,0,0,0-.8-1.76,4.35,4.35,0,0,0-2.45-.56Z"/><path class="cls-6" d="M173.26,295.3h1.57l2.11,5.49a21.22,21.22,0,0,1,.86,2.72h.07c.07-.3.23-.81.48-1.54s1-2.94,2.38-6.67h1.57l-4.14,11a5.42,5.42,0,0,1-1.44,2.3,3,3,0,0,1-2,.69,5.79,5.79,0,0,1-1.31-.15v-1.17a5.09,5.09,0,0,0,1.08.1,2.23,2.23,0,0,0,2.14-1.68l.54-1.38Z"/><path class="cls-7" d="M335.86,296.23v-2.47h-3.08v-3.84l-.09,0-2.89.88-.06,0v2.91H325.2v-1.63a2.56,2.56,0,0,1,.5-1.72,1.75,1.75,0,0,1,1.41-.57,3.14,3.14,0,0,1,1.33.31l.11.05v-2.6l-.06,0a4.94,4.94,0,0,0-1.7-.23,4.88,4.88,0,0,0-2.41.58,4,4,0,0,0-1.66,1.63,4.84,4.84,0,0,0-.59,2.41v1.78H320v2.47h2.14v10.4h3.06v-10.4h4.54v6.61c0,2.73,1.29,4.11,3.82,4.11a6,6,0,0,0,1.31-.14,3.67,3.67,0,0,0,.94-.3l.05,0V304l-.12.09a3.29,3.29,0,0,1-.62.27,2.25,2.25,0,0,1-.6.1,1.72,1.72,0,0,1-1.31-.47,2.61,2.61,0,0,1-.42-1.66v-6.08h3.08Z"/><path class="cls-7" d="M318,295.22a6.24,6.24,0,0,0-4.72-1.77,6.79,6.79,0,0,0-5,1.85,6.93,6.93,0,0,0-1.81,5.05,6.52,6.52,0,0,0,1.77,4.82A6.36,6.36,0,0,0,313,307a6.51,6.51,0,0,0,4.92-1.88,7,7,0,0,0,1.81-5A6.69,6.69,0,0,0,318,295.22Zm-2.31,8.14a3,3,0,0,1-2.54,1.08,3.32,3.32,0,0,1-2.62-1.1,4.7,4.7,0,0,1-.93-3.1,4.94,4.94,0,0,1,.93-3.18,3.24,3.24,0,0,1,2.58-1.11,3.15,3.15,0,0,1,2.52,1.07,4.72,4.72,0,0,1,.92,3.15A5.06,5.06,0,0,1,315.69,303.36Z"/><path class="cls-7" d="M301.51,293.45a5.58,5.58,0,0,0-3.56,1.1,3.48,3.48,0,0,0-1.38,2.85,4,4,0,0,0,.3,1.6,3.12,3.12,0,0,0,.92,1.2,7.86,7.86,0,0,0,1.87,1,12.22,12.22,0,0,1,1.54.73,2,2,0,0,1,.68.56,1.29,1.29,0,0,1,.19.73c0,.87-.65,1.29-2,1.29a5.37,5.37,0,0,1-1.68-.31,6.42,6.42,0,0,1-1.71-.87l-.13-.09v3l0,0a7.52,7.52,0,0,0,1.63.5,8.28,8.28,0,0,0,1.73.2,5.89,5.89,0,0,0,3.76-1.11,3.57,3.57,0,0,0,1.39-2.93,3.39,3.39,0,0,0-.74-2.21,6.42,6.42,0,0,0-2.56-1.63,6.54,6.54,0,0,1-1.82-.94,1.32,1.32,0,0,1-.37-1,1.16,1.16,0,0,1,.46-.92,2.08,2.08,0,0,1,1.31-.38,5.33,5.33,0,0,1,1.56.24,5.51,5.51,0,0,1,1.36.63l.12.09V294l0,0a6.41,6.41,0,0,0-1.39-.39,8.35,8.35,0,0,0-1.49-.15"/><path class="cls-7" d="M293.43,295.22a6.24,6.24,0,0,0-4.72-1.77,6.73,6.73,0,0,0-5,1.85,6.93,6.93,0,0,0-1.82,5.05,6.57,6.57,0,0,0,1.77,4.82,6.39,6.39,0,0,0,4.74,1.78,6.5,6.5,0,0,0,4.92-1.88,6.92,6.92,0,0,0,1.81-5A6.73,6.73,0,0,0,293.43,295.22Zm-2.3,8.14a3.07,3.07,0,0,1-2.55,1.08,3.29,3.29,0,0,1-2.61-1.1,4.63,4.63,0,0,1-.94-3.1,4.88,4.88,0,0,1,.94-3.18,3.2,3.2,0,0,1,2.58-1.11,3.13,3.13,0,0,1,2.51,1.07,4.66,4.66,0,0,1,.92,3.15A5.06,5.06,0,0,1,291.13,303.36Z"/><path class="cls-7" d="M277.23,296v-2.22h-3v12.87h3v-6.58a4.54,4.54,0,0,1,.76-2.74,2.29,2.29,0,0,1,2-1,3.91,3.91,0,0,1,.91.13,2.37,2.37,0,0,1,.71.29l.13.09v-3.06l-.05,0a3.5,3.5,0,0,0-3.21.55,4.14,4.14,0,0,0-1.17,1.72Z"/><path class="cls-7" d="M268.78,293.45a7.44,7.44,0,0,0-3.69.89,6,6,0,0,0-2.43,2.5,8,8,0,0,0-.83,3.7,6.8,6.8,0,0,0,.81,3.32,5.81,5.81,0,0,0,2.27,2.29,6.71,6.71,0,0,0,3.32.8,7.09,7.09,0,0,0,3.65-.86l.05,0V303.3l-.13.08a5.69,5.69,0,0,1-1.49.77,4.38,4.38,0,0,1-1.44.29,3.75,3.75,0,0,1-2.84-1.11,4.33,4.33,0,0,1-1-3.06,4.41,4.41,0,0,1,1.09-3.14,3.71,3.71,0,0,1,2.84-1.18,4.94,4.94,0,0,1,2.89,1l.13.09v-2.92l0,0a4.83,4.83,0,0,0-1.41-.47,8,8,0,0,0-1.71-.18"/><rect class="cls-7" x="256.71" y="293.76" width="3.03" height="12.88"/><path class="cls-7" d="M258.25,288.27a1.82,1.82,0,0,0-1.29.5,1.64,1.64,0,0,0-.54,1.27,1.59,1.59,0,0,0,.54,1.24,1.82,1.82,0,0,0,1.29.49,1.89,1.89,0,0,0,1.31-.49,1.61,1.61,0,0,0,.53-1.24,1.71,1.71,0,0,0-.52-1.26,1.8,1.8,0,0,0-1.32-.51"/><polygon class="cls-7" points="250.7 292.81 250.7 306.64 253.78 306.64 253.78 288.66 249.51 288.66 244.07 302.01 238.79 288.66 234.33 288.66 234.33 306.64 237.24 306.64 237.24 292.8 237.34 292.8 242.92 306.64 245.11 306.64 250.6 292.81 250.7 292.81"/><rect class="cls-8" x="195.35" y="282.66" width="14.25" height="14.25"/><rect class="cls-9" x="211.09" y="282.66" width="14.25" height="14.25"/><rect class="cls-10" x="195.35" y="298.4" width="14.25" height="14.26"/><rect class="cls-11" x="211.09" y="298.4" width="14.25" height="14.26"/></svg>