<svg xmlns="http://www.w3.org/2000/svg" width="150" height="25" viewBox="0 0 340.14 46.84"><defs><style>.cls-1,.cls-3{fill:#60240a;}.cls-2{fill:#ff6700;}.cls-3{fill-rule:evenodd;}</style></defs><title>logo-colored</title><g id="Layer_2" data-name="Layer 2"><g id="Layer_1-2" data-name="Layer 1"><path class="cls-1" d="M67.89,43.61c-4.82,0-9.16-.53-13-4.4l5-5c2.53,2.52,5.82,2.88,8.16,2.88,2.65,0,5.41-.88,5.41-3.17,0-1.53-.83-2.59-3.23-2.82l-4.82-.47c-5.52-.53-8.92-2.94-8.92-8.58,0-6.34,5.58-9.74,11.8-9.74,4.76,0,8.75.82,11.68,3.58l-4.69,4.76c-1.76-1.59-4.47-2.06-7.11-2.06-3.05,0-4.34,1.41-4.34,2.94,0,1.11.47,2.4,3.17,2.64l4.81.47c6,.58,9.1,3.82,9.1,9C80.86,40.38,75.11,43.61,67.89,43.61Z"/><path class="cls-1" d="M94.19,43.26c-6.22,0-8.87-4.4-8.87-8.75V19.36H82.09V13.55h3.23v-9H93v9h5.4v5.81H93V34c0,1.76.82,2.76,2.64,2.76h2.76v6.46Z"/><path class="cls-1" d="M101.75,7.44V1.22h7.81V7.44Zm.12,35.82V12.67h7.63V43.26Z"/><path class="cls-1" d="M126.75,43.61c-6.11,0-13.68-3.29-13.68-15.67s7.57-15.62,13.68-15.62a13,13,0,0,1,10.1,4.11l-5.17,5.16a6.16,6.16,0,0,0-4.93-2.4,5.31,5.31,0,0,0-4.35,2c-1.17,1.47-1.7,3.53-1.7,6.76s.53,5.34,1.7,6.81a5.31,5.31,0,0,0,4.35,2,6.16,6.16,0,0,0,4.93-2.4l5.17,5.1A13.07,13.07,0,0,1,126.75,43.61Z"/><path class="cls-1" d="M157.91,43.26l-7.52-12.74-3.23,3.64v9.1h-7.63V1.46h7.63V25.18l10.16-12.51h9.22L155.62,25l11.74,18.26Z"/><path class="cls-1" d="M173.74,30.34c0,3.94,2.4,6.81,6.69,6.81a8.47,8.47,0,0,0,6.93-2.87L192,38.8c-3.11,3.11-6.1,4.81-11.62,4.81-7.22,0-14.15-3.29-14.15-15.67,0-10,5.4-15.62,13.33-15.62,8.51,0,13.33,6.22,13.33,14.62v3.4Zm10.91-8.51a5.7,5.7,0,0,0-10.21,0,8.3,8.3,0,0,0-.7,3.29h11.62A8.3,8.3,0,0,0,184.65,21.83Z"/><path class="cls-1" d="M213.12,21a5.07,5.07,0,0,0-4.05-1.82c-2.35,0-4.94,1.76-4.94,5.63V43.26H196.5V12.67H204v2.94a10.32,10.32,0,0,1,7.69-3.29,9.19,9.19,0,0,1,7.22,2.88Z"/><path class="cls-2" d="M253.18,12.32A11.66,11.66,0,0,0,244,16.19a9.48,9.48,0,0,0-8.1-3.87,10.7,10.7,0,0,0-7.64,3.17V12.67h-7.45V43.26h7.63V24.77c0-4.17,2.7-5.58,5.11-5.58s5.05,1.41,5.05,5.58V43.26h7.63V24.59c0-4,2.76-5.4,5.11-5.4s5.05,1.41,5.05,5.58V43.26H264V23.71A11.51,11.51,0,0,0,260.69,15,10.67,10.67,0,0,0,253.18,12.32Z"/><path class="cls-2" d="M286.35,31.17c0,4.16-2.7,5.57-5.11,5.57s-5.05-1.41-5.05-5.57V12.67h-7.63V32.22c0,3.35.65,6.23,3.11,8.69a9.92,9.92,0,0,0,7.23,2.7,10.46,10.46,0,0,0,7.63-3.17v2.82H294V12.67h-7.64Z"/><path class="cls-2" d="M306.48,34V1.46h-7.64V34.51c0,4.35,2.65,8.75,8.93,8.75h4.34V36.8h-2.93C307.24,36.8,306.48,35.86,306.48,34Z"/><path class="cls-2" d="M340.14,26.94c0-8.4-4.82-14.62-13.33-14.62-7.93,0-13.33,5.63-13.33,15.62,0,12.38,6.93,15.67,14.15,15.67,5.52,0,8.52-1.7,11.63-4.81l-4.64-4.52a8.46,8.46,0,0,1-6.93,2.87c-4.29,0-6.69-2.87-6.69-6.81h19.14ZM321,25.12a8.48,8.48,0,0,1,.7-3.29,5.7,5.7,0,0,1,10.22,0,8.48,8.48,0,0,1,.7,3.29Z"/><path class="cls-3" d="M31.34,46.65a4.48,4.48,0,0,1-1.66.18,2.76,2.76,0,0,1-1.6-.25,1.07,1.07,0,0,1-.22-.66,2.84,2.84,0,0,1,.09-.75,1.48,1.48,0,0,0,0-.84c-.14-.19-.61-.11-.87-.25s-.34-.51-.43-.91c0-.13-.1-.25-.11-.35a6.82,6.82,0,0,1,.27-2.07c.15-.66.34-1.29.45-1.91a12.16,12.16,0,0,0,.16-3,5.35,5.35,0,0,1,0-1.32c.07-.39.24-.72.32-1.11,0-.12,0-.27,0-.41a2.66,2.66,0,0,0,.09-.32,8.44,8.44,0,0,0-.09-.91,24.33,24.33,0,0,1,.07-2.87c0-.26.14-.56,0-.68a18,18,0,0,0-2.6.28,24.57,24.57,0,0,1-7.37-.12c-.21,0-.42,0-.62-.09a10.58,10.58,0,0,1-4.12-1.91L12.5,26a4.18,4.18,0,0,0-.57-.44,2.15,2.15,0,0,0-2.44.64c-.14.23-.24.53-.38.8s-.25.53-.37.79c-.59,1.35-1.25,2.64-1.84,4a22.75,22.75,0,0,0-1,2.52c-.54,1.86,0,4.35.39,6.1,0,.16.12.32.18.5a3.24,3.24,0,0,0,.75,1.28c.17.15.47.24.66.41a3.36,3.36,0,0,1,.61,1c.08.15.19.32.3.5.23.4.3.75-.14,1a3.37,3.37,0,0,1-1.29.25c-.21.06-.15.34-.28.48a1.81,1.81,0,0,1-.54.25,4.34,4.34,0,0,1-2.12,0,.93.93,0,0,1-.57-.46c-.12-.37.18-.84-.09-1.13-.11-.13-.37-.11-.59-.21a1.48,1.48,0,0,1-.77-.82c-.37-.91-.14-2.35-.19-3.48,0-.33,0-.68-.06-1,0-.67-.18-1.33-.25-2,0-.32-.15-.59-.21-.88-.1-.47-.18-1-.32-1.46a2.26,2.26,0,0,1,0-1.48c.05-.12.18-.24.25-.41a2,2,0,0,0,.13-.79c-.08-.14-.39,0-.48-.16-.19-1.44-.4-2.89-.52-4.39,0-.51,0-1-.09-1.55-.1-1,0-2.08-.11-3.07,0-.49-.17-.94-.23-1.41a14.71,14.71,0,0,1-.28-4.4,5.09,5.09,0,0,1,1-2.25,12.85,12.85,0,0,1,1.16-1.3A12.34,12.34,0,0,1,3.6,12.22a6.35,6.35,0,0,1,1-.64,7.53,7.53,0,0,1,2.8-.7,14.91,14.91,0,0,1,3.27.13l3,.55c1,.19,1.9.45,2.8.68.12,0,.22.1.34.14.29.08.62.09.94.18a12,12,0,0,0,3,.34,13.37,13.37,0,0,0,3-.25,2.39,2.39,0,0,0,.38-.16c.15-.05.32,0,.46-.09a3.31,3.31,0,0,0,.29-.18,9.55,9.55,0,0,0,1.46-.84,4.94,4.94,0,0,1,1.18-.68c.22-.09.45-.21.66-.28A6.32,6.32,0,0,0,29.5,9.9,13,13,0,0,0,31,8.6c.49-.43,1-.84,1.5-1.25,1-.83,2.11-1.59,3.1-2.39a12.08,12.08,0,0,1,1.64-1.11,8.82,8.82,0,0,1,4-1.55,9.36,9.36,0,0,1,2,0,1.82,1.82,0,0,0,.6.09c.18,0,.31-.31.43-.52A12.11,12.11,0,0,0,44.79.64c.13-.33.07-.65.4-.64s.28.88.3,1.21a9.19,9.19,0,0,0,0,1.2.73.73,0,0,0,.57.48c.18,0,.31-.15.48-.25s.34-.17.45-.25a8.19,8.19,0,0,0,.87-.82c.22-.23.58-.77,1-.73.64.08,0,1-.14,1.34-.34.75-.67,1.31-1.05,2-.16.29-.52.68-.52,1s.18.35.27.57.07.21.12.31a16.85,16.85,0,0,1,.56,1.85c.15.51.28,1,.46,1.54s.44,1,.64,1.44c0,.12.06.28.11.41.42,1.06.82,2.27,1.32,3.3a3.5,3.5,0,0,1,.48,1.54,2.71,2.71,0,0,1-.66,1.5c-.16.27-.4.67-.64.76a3.62,3.62,0,0,1-.57,0c-.25,0-.43.2-.66.23a1.36,1.36,0,0,1-1.34-.87,4.17,4.17,0,0,1-.07-.54,2.64,2.64,0,0,0-1-1.57,4.4,4.4,0,0,0-1-.76c-.58-.3-1.23-.48-1.85-.82a1.23,1.23,0,0,0-.7-.2c-.33.07-.66.6-.91.93-1.61,2.12-3,4.3-4.6,6.38a32.32,32.32,0,0,0-3,4.34,11.33,11.33,0,0,0-.5,1.32c-.16.45-.24.95-.41,1.43-.61,1.73-.79,3.84-1.34,5.65-.06.19-.08.41-.14.61-.25.92-.5,2-.8,3a11.84,11.84,0,0,0-.31,2.69,6.43,6.43,0,0,0,.25,2.75c.17.3.79.41,1,.73s.27.64.43.93.44.62.41.93a.62.62,0,0,1-.39.48c-.19.09-.47,0-.65.14S31.55,46.51,31.34,46.65Z"/></g></g></svg>