<?xml version="1.0" encoding="iso-8859-1"?>
<!-- Generator: Adobe Illustrator 19.0.0, SVG Export Plug-In . SVG Version: 6.00 Build 0)  -->
<svg version="1.1" id="Layer_1" xmlns="http://www.w3.org/2000/svg" xmlns:xlink="http://www.w3.org/1999/xlink" x="0px" y="0px"
	 viewBox="0 0 496 496" style="enable-background:new 0 0 496 496;" xml:space="preserve">
<polygon style="fill:#05365B;" points="0,41.678 0,45.678 0,278.478 35.2,300.878 142.4,132.078 "/>
<polygon style="fill:#008C61;" points="496,45.678 496,41.678 353.6,132.078 460.8,300.878 496,278.478 "/>
<g>
	<path style="fill:#E29D81;" d="M404,335.278c30.4-19.2,38.4-60.8,17.6-92.8l-25.6-40c-20.8-32-61.6-42.4-92-23.2l-91.2,57.6
		c-30.4,19.2-38.4,60.8-17.6,92.8l25.6,40c20.8,32,61.6,42.4,92,23.2L404,335.278z"/>
	<path style="fill:#E29D81;" d="M392.8,342.478c11.2-7.2,14.4-22.4,7.2-33.6l0,0c-7.2-11.2-22.4-14.4-33.6-7.2l-168,106.4
		c-11.2,7.2-14.4,22.4-7.2,33.6l0,0c7.2,11.2,22.4,14.4,33.6,7.2L392.8,342.478z"/>
</g>
<path style="fill:#D3856A;" d="M196,329.678l25.6,40c20.8,32,61.6,42.4,92,23.2l91.2-57.6c30.4-19.2,38.4-60.8,17.6-92.8l-25.6-40"
	/>
<g>
	<path style="fill:#E29D81;" d="M288.8,303.278c11.2-7.2,14.4-22.4,7.2-33.6l0,0c-7.2-11.2-22.4-14.4-33.6-7.2l-168,107.2
		c-11.2,7.2-14.4,22.4-7.2,33.6l0,0c7.2,11.2,22.4,14.4,33.6,7.2L288.8,303.278z"/>
	<path style="fill:#E29D81;" d="M324,335.278c11.2-7.2,14.4-22.4,7.2-33.6l0,0c-7.2-11.2-22.4-14.4-33.6-7.2l-168,107.2
		c-11.2,7.2-14.4,22.4-7.2,33.6l0,0c7.2,11.2,22.4,14.4,33.6,7.2L324,335.278z"/>
	<path style="fill:#E29D81;" d="M288,248.078c11.2-7.2,14.4-22.4,7.2-33.6l0,0c-7.2-11.2-22.4-14.4-33.6-7.2l-168,107.2
		c-11.2,7.2-14.4,22.4-7.2,33.6l0,0c7.2,11.2,22.4,14.4,33.6,7.2L288,248.078z"/>
	<path style="fill:#E29D81;" d="M321.6,171.278c0,0-94.4,13.6-102.4,16c-7.2,2.4-29.6,56.8-4,63.2c26.4,6.4,68-27.2,68-27.2
		L321.6,171.278z"/>
</g>
<rect x="388.697" y="135.711" transform="matrix(0.8439 -0.5366 0.5366 0.8439 -56.1767 251.1878)" style="fill:#FFFFFF;" width="29.602" height="172.809"/>
<polyline style="fill:#DFE2E5;" points="369.6,141.678 344.8,157.678 437.6,303.278 "/>
<polyline style="fill:#006D49;" points="496,41.678 353.6,132.078 460.8,300.878 "/>
<path style="fill:#F9BDA0;" d="M401.6,368.878l-15.2-9.6c8.8,0.8,18.4-3.2,23.2-11.2c7.2-11.2,4-26.4-7.2-33.6l-112-71.2
	c8-16.8-8-52.8-13.6-55.2c-7.2-2.4-93.6-14.4-101.6-16c-27.2-8-58.4,4-75.2,30.4l-25.6,40c-20.8,32-12.8,73.6,17.6,92.8l7.2,4.8
	c0.8,0.8,2.4,2.4,4,3.2l168,107.2c11.2,7.2,26.4,4,33.6-7.2c4-6.4,4.8-13.6,2.4-20l32,20.8c11.2,7.2,26.4,4,33.6-7.2
	c5.6-8,4.8-18.4,0-25.6l1.6,0.8c11.2,7.2,26.4,4,33.6-7.2C416.8,391.278,413.6,376.078,401.6,368.878z"/>
<g>
	<path style="fill:#FFE4C7;" d="M279.2,440.878c-4.8-3.2-6.4-8.8-3.2-13.6l3.2-5.6c3.2-4.8,8.8-6.4,13.6-3.2l0,0
		c4.8,3.2,6.4,8.8,3.2,13.6l-3.2,5.6C290.4,442.478,284,444.078,279.2,440.878L279.2,440.878z"/>
	<path style="fill:#FFE4C7;" d="M383.2,401.678c-4.8-3.2-6.4-8.8-3.2-13.6l3.2-5.6c3.2-4.8,8.8-6.4,13.6-3.2l0,0
		c4.8,3.2,6.4,8.8,3.2,13.6l-3.2,5.6C394.4,403.278,388,404.878,383.2,401.678L383.2,401.678z"/>
	<path style="fill:#FFE4C7;" d="M348,433.678c-4.8-3.2-6.4-8.8-3.2-13.6l3.2-5.6c3.2-4.8,8.8-6.4,13.6-3.2l0,0
		c4.8,3.2,6.4,8.8,3.2,13.6l-3.2,5.6C358.4,435.278,352.8,436.878,348,433.678L348,433.678z"/>
	<path style="fill:#FFE4C7;" d="M384,347.278c-4.8-3.2-6.4-8.8-3.2-13.6l3.2-5.6c3.2-4.8,8.8-6.4,13.6-3.2l0,0
		c4.8,3.2,6.4,8.8,3.2,13.6l-2.4,5.6C395.2,348.878,388.8,349.678,384,347.278L384,347.278z"/>
</g>
<rect x="77.486" y="136.065" transform="matrix(-0.8439 -0.5365 0.5365 -0.8439 50.8137 459.7146)" style="fill:#FFFFFF;" width="29.6" height="172.8"/>
<polyline style="fill:#DFE2E5;" points="126.4,141.678 151.2,157.678 58.4,303.278 "/>
<polyline style="fill:#00263D;" points="0,41.678 142.4,132.078 35.2,300.878 "/>
<path style="fill:#FFC114;" d="M56,195.278c-4.8,8-15.2,9.6-22.4,4.8c-8-4.8-9.6-15.2-4.8-22.4c4.8-8,15.2-9.6,22.4-4.8
	C58.4,177.678,60.8,188.078,56,195.278z"/>
<path style="fill:#E8AB92;" d="M402.4,313.678l-112-71.2c8-16.8-8-52.8-13.6-55.2c-3.2-1.6-25.6-4.8-48.8-8l-25.6,80l210.4,67.2
	C411.2,321.678,408,316.878,402.4,313.678z"/>
<path style="fill:#E29D81;" d="M296,192.878c7.2,12,10.4,43.2,0.8,48.8l-80.8,17.6c-9.6,5.6-22.4,0-29.6-11.2l0,0
	c-7.2-12-4.8-25.6,4.8-31.2l57.6-33.6c9.6-5.6,39.2-4,46.4,7.2L296,192.878z"/>
<g>
</g>
<g>
</g>
<g>
</g>
<g>
</g>
<g>
</g>
<g>
</g>
<g>
</g>
<g>
</g>
<g>
</g>
<g>
</g>
<g>
</g>
<g>
</g>
<g>
</g>
<g>
</g>
<g>
</g>
</svg>
