<?xml version="1.0" encoding="utf-8"?>
<!-- Generator: Adobe Illustrator 19.1.0, SVG Export Plug-In . SVG Version: 6.00 Build 0)  -->
<svg version="1.1" id="Layer_1" xmlns="http://www.w3.org/2000/svg" xmlns:xlink="http://www.w3.org/1999/xlink" x="0px" y="0px"
	 viewBox="-621 549 196.5 344" style="enable-background:new -621 549 196.5 344;" xml:space="preserve">
<style type="text/css">
	.st0{fill:#353535;}
	.st1{display:none;opacity:8.000000e-02;enable-background:new    ;}
	.st2{opacity:0.42;fill:#232323;enable-background:new    ;}
	.st3{display:none;}
	.st4{display:inline;}
	.st5{fill:#FFFFFF;}
	.st6{display:none;fill:#CEA600;}
	.st7{clip-path:url(#SVGID_2_);}
</style>
<g>
	<path class="st0" d="M-610,682.7c0-1.3,2.6-1.7,4.5-1.7h166.2c1.9,0,2.3,0.4,2.3,1.7V860c0,1.3-0.8,2.9-2.4,3.5l-79.6,29.1
		c-1.6,0.6-4.2,0.6-5.9,0l-81.6-29.1c-1.7-0.6-3.5-2.1-3.5-3.4V682.7z"/>
	<path class="st1" d="M-601.7,738.4c0,0,80.7,17,157.8-0.1v-8.8c0,0-71,14.2-157.8,0.1C-601.7,729.6-601.7,738.4-601.7,738.4z"/>
	<polygon class="st2" points="-443,749.2 -443,728.9 -603.9,728.9 	"/>
	<g class="st3">
		<g class="st4">
			<g>
				<polygon class="st5" points="-589.7,849.8 -589.7,762.3 -600.3,762.3 -600.3,725.3 -550.1,725.3 -550.1,849.8 				"/>
				<path d="M-556.8,732v111.2H-583v-87.5h-10.6V732H-556.8 M-543.4,718.6h-13.4h-36.8H-607V732v23.7V769h10.7v74.2v13.4h13.3h26.2
					h13.4v-13.4V732V718.6L-543.4,718.6z"/>
			</g>
			<g>
				<polygon class="st5" points="-537.3,849.6 -500.4,761.8 -543.1,761.8 -543.1,724.8 -441.7,724.8 -496.7,849.6 				"/>
				<path d="M-451.9,731.4L-501,842.9h-26.2l36.9-87.8h-46.1v-23.7H-451.9 M-431.5,718.1H-452h-84.4h-13.4v13.4v23.7v13.4h13.4h26
					l-29.1,69.3l-7.8,18.5h20.1h26.2h8.7l3.5-8l49.1-111.5L-431.5,718.1L-431.5,718.1z"/>
			</g>
		</g>
	</g>
	<g>
		<path class="st5" d="M-432.4,720.1c0,0-79.9,26.4-180.8,0v-51.4c93,24.2,180.8,0,180.8,0V720.1z"/>
		<path class="st0" d="M-432.4,668.7v51.4c0,0-35.5,11.7-89.1,11.7c-26.8,0-58.1-2.9-91.7-11.7v-51.4c31,8.1,61.4,10.8,88.2,10.8
			C-471.4,679.5-432.4,668.7-432.4,668.7 M-424.6,658.5l-9.9,2.7c-0.4,0.1-38.8,10.5-90.5,10.5c-30.4,0-59.5-3.5-86.3-10.5l-9.7-2.6
			v10.1v51.4v6l5.8,1.5c30.4,8,61.9,12,93.7,12c54.2,0,90.1-11.6,91.6-12.1l5.3-1.8v-5.6v-51.4L-424.6,658.5L-424.6,658.5z"/>
	</g>
	<g>
		<path class="st0" d="M-424.5,658.5l-10-4.9v-105H-612v105.8l-9.1,4.5l9.1,6.4v0.1h0.2l0.6,0.4v-0.4h3.1l0,0
			c0,0,85.3,25.6,172.4,0.4h1.3v-0.4c0,0,0,0,0.1,0L-424.5,658.5z"/>
	</g>
	<path class="st5" d="M-522.8,726.8"/>
	<g class="st3">
		<g class="st4">
			<g>
				<g>
					<g>
						<g>
							<polygon class="st5" points="-550.9,651.1 -551.4,651.1 -551.4,630.3 -550.9,630.3 							"/>
						</g>
						<g>
							<g>
								<path class="st5" d="M-566.9,631.4c-2.5,0-4.8,1-6.5,2.7l0,0c-1.7,1.6-2.7,3.9-2.7,6.4l0,0c0,2.5,1,4.8,2.7,6.4l0,0
									c1.7,1.6,4,2.7,6.5,2.7l0,0c2.5,0,4.8-1,6.5-2.7l0,0c1.7-1.6,2.7-3.9,2.7-6.4l0,0c0-2.5-1-4.8-2.7-6.4l0,0
									C-562.1,632.4-564.4,631.4-566.9,631.4L-566.9,631.4 M-559.7,633.3L-559.7,633.3 M-566.9,630.3c5.7,0,10.3,4.6,10.3,10.2
									l0,0c0,5.6-4.6,10.2-10.3,10.2l0,0c-5.7,0-10.3-4.6-10.3-10.2l0,0C-577.3,634.9-572.6,630.3-566.9,630.3L-566.9,630.3
									 M-574.2,633.3L-574.2,633.3"/>
							</g>
							<g>
								<path class="st5" d="M-571.8,640.4c0-0.6-0.4-0.9-1-0.9h-0.3v1.9h0.3C-572.3,641.4-571.8,641.1-571.8,640.4L-571.8,640.4z
									 M-565.7,641.1l-2.6,2l-2.3-1.8c-0.3,0.8-1.1,1.4-2.1,1.4h-2v-4.4h2c1,0,1.8,0.7,2.1,1.4l2.3-1.8l0.9,0.7l-2.1,1.7l0.4,0.3
									l2.1-1.7l0.9,0.7l-2.1,1.7l0.4,0.3l2.1-1.7v-1.5h1.6v3.1h1.5v1.3h-3.1V641.1L-565.7,641.1z M-560.6,641.4h1.5v1.3h-3.1v-4.4
									h1.6V641.4L-560.6,641.4z"/>
							</g>
						</g>
					</g>
				</g>
				<g>
					<g>
						<path class="st5" d="M-546,635.4l6.3-0.9v6h-6.3 M-539,634.4l8.4-1.2v7.3h-8.4 M-546,641.2h6.3v6l-6.3-0.8 M-539,641.3h8.4
							v7.2l-8.4-1.2"/>
					</g>
					<g>
						<g>
							<path class="st5" d="M-525.3,636.3c0.4,0,0.7,0,1.1,0c0.6,2,1.1,4,1.7,6c0.1,0.4,0.2,0.8,0.3,1.3c0.6-2.4,1.4-4.8,2-7.3
								c0.3,0,0.6,0,0.9,0c0.5,1.7,0.9,3.5,1.4,5.2c0.2,0.7,0.4,1.4,0.5,2.1c0.5-2.4,1.3-4.8,1.9-7.3c0.4,0,0.7,0,1.1,0
								c-0.8,2.8-1.6,5.5-2.3,8.3h-1.3c-0.6-2-1.1-4-1.7-6c-0.1-0.3-0.1-0.7-0.2-1c0,0.3-0.1,0.6-0.2,0.9c-0.6,2-1.2,4-1.7,6.1
								c-0.4,0-0.8,0-1.1,0C-523.7,641.8-524.5,639.1-525.3,636.3"/>
						</g>
						<g>
							<path class="st5" d="M-513.9,636.4c0-0.3,0.4-0.6,0.7-0.5c0.3,0.1,0.6,0.4,0.5,0.7c0,0.3-0.4,0.6-0.7,0.5
								c-0.3,0-0.5-0.3-0.5-0.5 M-513.8,638.6h0.9v6h-0.9"/>
						</g>
						<g>
							<path class="st5" d="M-510.3,639.6c0.5-1,1.8-1.4,2.8-1c0.8,0.3,1.1,1.2,1.1,2c0,1.3,0,2.6,0,3.9c-0.3,0-0.6,0-0.9,0
								c0-1.3,0-2.5,0-3.8c0-0.6-0.3-1.4-1-1.5c-1-0.3-2,0.6-2,1.6c0,1.2,0,2.5,0,3.7h-0.9c0-2,0-4,0-6h0.9
								C-510.3,639-510.3,639.3-510.3,639.6"/>
						</g>
						<g>
							<path class="st5" d="M-500.7,635.8c0.3,0,0.6,0,0.9,0v8.8h-0.9c0-0.3,0-0.6,0-1c-0.7,1.2-2.5,1.5-3.6,0.6
								c-0.7-0.6-1-1.7-0.9-2.6c0-1,0.3-2,1.1-2.6c1-0.8,2.8-0.8,3.4,0.4C-500.7,638.2-500.7,637-500.7,635.8 M-502.7,639.3
								c-0.8,0.1-1.3,0.8-1.4,1.5c-0.2,0.9-0.2,1.8,0.4,2.6c0.6,0.8,1.9,0.8,2.5,0.1c0.4-0.4,0.5-1.1,0.6-1.7c0-0.6,0.1-1.3-0.4-1.9
								C-501.4,639.4-502.1,639.2-502.7,639.3"/>
						</g>
						<g>
							<path class="st5" d="M-496,638.5c0.8-0.1,1.8,0.1,2.4,0.7c0.7,0.7,0.9,1.7,0.9,2.6c0,0.8-0.3,1.7-0.9,2.3
								c-1.3,1.2-3.7,0.9-4.5-0.7c-0.6-1.3-0.5-3.2,0.7-4.2C-497.1,638.8-496.6,638.6-496,638.5 M-496.2,639.3
								c-1.4,0.4-1.6,2.2-1.2,3.4c0.3,1.1,1.7,1.5,2.7,1c0.7-0.3,1-1,1-1.7c0.1-0.8,0-1.7-0.6-2.3
								C-494.8,639.3-495.6,639.1-496.2,639.3"/>
						</g>
						<g>
							<path class="st5" d="M-492.3,638.6h1c0.4,1.4,0.8,2.8,1.2,4.3c0.1,0.3,0.1,0.5,0.1,0.8c0.4-1.7,1-3.4,1.5-5.1h0.9
								c0.4,1.7,1,3.4,1.3,5.1c0.4-1.7,0.9-3.4,1.3-5.1c0.3,0,0.6,0,1,0c-0.6,2-1.2,4-1.8,6h-1c-0.4-1.6-1-3.2-1.3-4.8
								c-0.4,1.6-1,3.2-1.5,4.8h-0.9C-491.2,642.6-491.8,640.6-492.3,638.6"/>
						</g>
						<g>
							<path class="st5" d="M-481.7,638.5c0.6,0,1.2,0,1.8,0.2c0.2,0.3,0,0.7,0.1,1c-0.7-0.4-1.6-0.7-2.3-0.3
								c-0.5,0.3-0.5,1.1,0,1.3c0.7,0.4,1.6,0.6,2.2,1.1c0.7,0.6,0.5,1.9-0.3,2.4c-1,0.6-2.2,0.5-3.2,0.1c0-0.4,0-0.7,0-1.1
								c0.7,0.5,1.7,0.8,2.6,0.5c0.5-0.2,0.5-1,0.1-1.3c-0.7-0.5-1.6-0.6-2.2-1.2c-0.6-0.6-0.5-1.7,0.2-2.2
								C-482.6,638.7-482.1,638.6-481.7,638.5"/>
						</g>
						<g>
							<path class="st5" d="M-475.1,636.2c0.1,0,0.3,0,0.3,0c0,2.8,0,5.7,0,8.5h-0.9c0-2.4,0-4.7,0-7.1c-0.6,0.4-1.2,0.8-1.9,1
								c0-0.3,0-0.6,0-0.9C-476.7,637.2-475.9,636.7-475.1,636.2"/>
						</g>
						<g>
							<path class="st5" d="M-471.3,636.1c0.8-0.1,1.7,0.2,2.2,0.9c0.7,1,0.8,2.2,0.8,3.4c0,1.2-0.2,2.5-0.9,3.5
								c-0.7,0.9-2.2,1.2-3.2,0.5c-0.8-0.6-1.1-1.5-1.2-2.4c-0.2-1.3-0.1-2.8,0.3-4C-473,637-472.3,636.3-471.3,636.1 M-471.4,637
								c-0.8,0.3-1.1,1.3-1.2,2.1c-0.1,1.1-0.2,2.3,0.1,3.4c0.1,0.5,0.4,1.1,1,1.4c0.6,0.3,1.4,0,1.8-0.6c0.5-0.9,0.5-1.9,0.5-2.9
								s-0.1-2-0.6-2.9C-470.2,637-470.9,636.8-471.4,637"/>
						</g>
					</g>
				</g>
			</g>
		</g>
		<g class="st4">
			<g>
				<g>
					<g>
						<path class="st5" d="M-542.6,579c0.7,0.3,1.4,0.7,1.9,1.3c0.5,0.5,1,1.1,1.3,1.9c0.3,0.7,0.5,1.5,0.5,2.3V614
							c0,0.3-0.1,0.5-0.3,0.7s-0.4,0.3-0.7,0.3h-7.2c-0.3,0-0.5-0.1-0.7-0.3s-0.3-0.4-0.3-0.7v-26.9h-5.8v26.8
							c0,0.3-0.1,0.5-0.3,0.7c-0.2,0.2-0.4,0.3-0.7,0.3h-6.5c-0.3,0-0.5-0.1-0.7-0.3c-0.2-0.2-0.3-0.4-0.3-0.7v-26.8h-5.8v26.8
							c0,0.6-0.3,1-1,1h-7.2c-0.7,0-1-0.3-1-1v-34.4c0-0.6,0.3-1,1-1h31.3C-544.1,578.5-543.3,578.7-542.6,579z"/>
					</g>
					<g>
						<path class="st5" d="M-542.6,579c0.7,0.3,1.4,0.7,1.9,1.3c0.5,0.5,1,1.1,1.3,1.9c0.3,0.7,0.5,1.5,0.5,2.3v2.6h-9.1h-5.8h-8.5
							h-5.8l-9.1-0.1v-7.6c0-0.6,0.3-1,1-1h31.3C-544.1,578.5-543.3,578.7-542.6,579z"/>
					</g>
				</g>
				<g>
					<g>
						<path class="st5" d="M-507.4,606.1c0.3,0,0.5,0.1,0.7,0.3c0.2,0.2,0.3,0.4,0.3,0.7v6.9c0,0.3-0.1,0.5-0.3,0.7
							c-0.2,0.2-0.4,0.3-0.7,0.3h-24.7c-0.7,0-1-0.3-1-1v-34.5c0-0.7,0.3-1,1-1h7.6c0.7,0,1,0.3,1,1v25.6c0,0.3,0.1,0.5,0.3,0.7
							s0.4,0.3,0.7,0.3H-507.4z"/>
					</g>
					<g>
						<path class="st5" d="M-523.5,614.9h-8.6c-0.7,0-1-0.3-1-1v-34.4c0-0.7,0.3-1,1-1h7.6c0.7,0,1,0.3,1,1v25.6
							C-523.5,605.4-523.5,614.9-523.5,614.9z"/>
					</g>
				</g>
				<g>
					<g>
						<path class="st5" d="M-469.3,578.5c0.3,0,0.5,0.1,0.7,0.3s0.3,0.4,0.3,0.7V614c0,0.3-0.1,0.5-0.3,0.7s-0.5,0.3-0.7,0.3h-7.7
							c-0.3,0-0.5-0.1-0.7-0.3c-0.2-0.2-0.3-0.4-0.3-0.7v-12c0-0.3-0.1-0.5-0.3-0.7c-0.2-0.2-0.4-0.3-0.7-0.3h-10.8
							c-0.3,0-0.5,0.1-0.7,0.3s-0.3,0.4-0.3,0.7v12c0,0.7-0.4,1-1.1,1h-7.6c-0.7,0-1.1-0.3-1.1-1v-34.5c0-0.7,0.4-1,1.1-1h7.6
							c0.7,0,1.1,0.3,1.1,1v11.7c0,0.7,0.4,1,1.1,1h10.8c0.3,0,0.5-0.1,0.7-0.3c0.2-0.2,0.3-0.4,0.3-0.7v-11.7
							c0-0.3,0.1-0.5,0.3-0.7c0.2-0.2,0.5-0.3,0.7-0.3H-469.3z"/>
					</g>
					<g>
						<path class="st5" d="M-490.9,602v12c0,0.7-0.4,1-1.1,1h-7.6c-0.7,0-1.1-0.3-1.1-1v-34.5c0-0.7,0.4-1,1.1-1h7.6
							c0.7,0,1.1,0.3,1.1,1v11.7C-490.9,591.9-490.9,601.7-490.9,602z"/>
					</g>
					<g>
						<path class="st5" d="M-469.3,578.5c0.3,0,0.5,0.1,0.7,0.3s0.3,0.4,0.3,0.7V614c0,0.3-0.1,0.5-0.3,0.7s-0.5,0.3-0.7,0.3h-7.7
							c-0.3,0-0.5-0.1-0.7-0.3c-0.2-0.2-0.3-0.4-0.3-0.7v-12c0-0.3,0-10.5,0-10.8v-11.7c0-0.3,0.1-0.5,0.3-0.7
							c0.2-0.2,0.5-0.3,0.7-0.3H-469.3z"/>
					</g>
				</g>
			</g>
		</g>
		<g class="st4">
			<g>
				<g>
					<path class="st5" d="M-541,621.5c0,0.5-0.2,0.9-0.5,1.1c-0.4,0.3-0.8,0.4-1.5,0.4h-0.8v2.1h-0.4V620h1.3
						C-541.6,620-541,620.5-541,621.5z M-543.8,622.7h0.8c0.6,0,1-0.1,1.2-0.3c0.3-0.2,0.4-0.5,0.4-0.9s-0.1-0.7-0.4-0.9
						c-0.2-0.2-0.6-0.3-1.1-0.3h-0.8L-543.8,622.7L-543.8,622.7z"/>
				</g>
				<g>
					<path class="st5" d="M-535.6,622.6c0,0.8-0.2,1.5-0.6,1.9c-0.4,0.5-1,0.7-1.7,0.7c-0.7,0-1.3-0.2-1.7-0.7
						c-0.4-0.5-0.6-1.1-0.6-1.9c0-0.8,0.2-1.5,0.6-1.9c0.4-0.5,1-0.7,1.7-0.7c0.7,0,1.3,0.2,1.7,0.7
						C-535.8,621.1-535.6,621.8-535.6,622.6z M-539.8,622.6c0,0.7,0.2,1.3,0.5,1.7c0.3,0.4,0.8,0.6,1.4,0.6c0.6,0,1.1-0.2,1.4-0.6
						c0.3-0.4,0.5-1,0.5-1.7c0-0.7-0.2-1.3-0.5-1.7c-0.3-0.4-0.8-0.6-1.4-0.6c-0.6,0-1.1,0.2-1.4,0.6
						C-539.6,621.3-539.8,621.8-539.8,622.6z"/>
				</g>
				<g>
					<path class="st5" d="M-530.4,625.1h-0.3l-1.1-3.9c-0.1-0.3-0.2-0.6-0.2-0.8c0,0.2-0.1,0.4-0.2,0.7c-0.1,0.3-0.4,1.6-1.1,4h-0.3
						l-1.4-5.1h0.4l0.9,3.3c0,0.1,0.1,0.3,0.1,0.4c0,0.1,0.1,0.2,0.1,0.3s0,0.2,0.1,0.3c0,0.1,0,0.2,0.1,0.3
						c0.1-0.3,0.2-0.8,0.4-1.4l0.9-3.1h0.4l1,3.6c0.1,0.4,0.2,0.7,0.3,1c0-0.2,0.1-0.3,0.1-0.5s0.4-1.5,1.1-4h0.1L-530.4,625.1z"/>
				</g>
				<g>
					<path class="st5" d="M-525.3,625.1h-2.8V620h2.8v0.3h-2.4v1.9h2.3v0.3h-2.3v2.2h2.4V625.1z"/>
				</g>
				<g>
					<path class="st5" d="M-523.8,622.9v2.2h-0.4V620h1.2c0.6,0,1.1,0.1,1.4,0.4c0.3,0.2,0.5,0.6,0.5,1.1c0,0.3-0.1,0.6-0.3,0.9
						c-0.2,0.2-0.5,0.4-0.8,0.5l1.4,2.3h-0.4l-1.3-2.2L-523.8,622.9L-523.8,622.9z M-523.8,622.6h1c0.4,0,0.8-0.1,1-0.3
						s0.4-0.5,0.4-0.9c0-0.4-0.1-0.7-0.3-0.8c-0.2-0.2-0.6-0.3-1.1-0.3h-0.8v2.3H-523.8z"/>
				</g>
				<g>
					<path class="st5" d="M-517.1,625.1h-2.8V620h2.8v0.3h-2.4v1.9h2.3v0.3h-2.3v2.2h2.4V625.1z"/>
				</g>
				<g>
					<path class="st5" d="M-512,622.5c0,0.9-0.2,1.5-0.7,1.9c-0.4,0.4-1.1,0.7-2,0.7h-1.2V620h1.4c0.8,0,1.4,0.2,1.9,0.6
						C-512.2,621.1-512,621.7-512,622.5z M-512.4,622.5c0-0.7-0.2-1.3-0.6-1.7c-0.4-0.4-0.9-0.6-1.6-0.6h-0.9v4.5h0.8
						C-513.2,624.8-512.4,624.1-512.4,622.5z"/>
				</g>
				<g>
					<path class="st5" d="M-509,620h1.4c0.6,0,1.1,0.1,1.4,0.3c0.3,0.2,0.4,0.5,0.4,1c0,0.3-0.1,0.5-0.3,0.7
						c-0.2,0.2-0.4,0.3-0.8,0.4l0,0c0.4,0.1,0.7,0.2,0.9,0.4s0.3,0.5,0.3,0.8c0,0.5-0.2,0.8-0.5,1.1c-0.3,0.3-0.8,0.4-1.3,0.4h-1.5
						V620z M-508.6,622.3h1.1c0.5,0,0.8-0.1,1-0.2c0.2-0.2,0.3-0.4,0.3-0.7c0-0.3-0.1-0.6-0.4-0.7c-0.2-0.2-0.6-0.2-1.1-0.2h-1v1.8
						H-508.6z M-508.6,622.6v2.2h1.2c0.9,0,1.4-0.4,1.4-1.2c0-0.7-0.5-1.1-1.5-1.1L-508.6,622.6L-508.6,622.6z"/>
				</g>
				<g>
					<path class="st5" d="M-503.3,622.8l1.5-2.8h0.4l-1.7,3.1v2h-0.4v-1.9l-1.7-3.2h0.4L-503.3,622.8z"/>
				</g>
			</g>
			<g>
				<g>
					<rect x="-499.4" y="622.1" class="st5" width="31.1" height="1.5"/>
				</g>
				<g>
					<rect x="-577.3" y="622.1" class="st5" width="31.1" height="1.5"/>
				</g>
			</g>
		</g>
	</g>
</g>
<g>
	<path class="st6" d="M-565.3,846.7c-3.7,0-6.2-2.5-6.2-6.2v-55.4l-1.8,1.4c-1.3,1-2.5,1.3-3.3,1.3c-0.8,0-1.6-0.2-2.3-0.6
		c-0.8-0.4-2.5-1.7-2.5-4.7V765c0-1.3,0.3-2.6,1-3.9c0.6-1.1,1.4-2.1,2.2-2.8l6.2-4.8c0.9-0.7,2-1.3,3.3-1.7
		c1.1-0.4,2.3-0.5,3.3-0.5h17.4c3.7,0,6.2,2.5,6.2,6.2v83c0,3.7-2.5,6.2-6.2,6.2H-565.3z"/>
	<path class="st5" d="M-545.6,757.5v83c0,1.6-0.8,2.4-2.4,2.4h-17.3c-1.6,0-2.4-0.8-2.4-2.4v-61.9c0-0.3-0.2-0.5-0.6-0.4
		c-0.4,0-0.8,0.3-1.3,0.7l-6.1,4.8c-0.5,0.4-0.9,0.5-1.3,0.3c-0.4-0.2-0.6-0.6-0.6-1.3V765c0-0.7,0.2-1.4,0.6-2.1
		c0.4-0.7,0.8-1.3,1.3-1.7l6.1-4.8c0.5-0.4,1.2-0.8,2-1c0.8-0.3,1.6-0.4,2.3-0.4h2.9h14.4C-546.4,755.1-545.6,755.9-545.6,757.5z"/>
	<path class="st6" d="M-521.3,846.7c-2.6,0-4-1.2-4.7-2.2c-0.5-0.8-1.3-2.6-0.2-5.1l0.1-0.1l4.3-8.3l26.8-51.6h-32.8
		c-1.6,0-3.1-0.6-4.3-1.7c-1.2-1.1-1.9-2.7-1.9-4.4v-15.8c0-3.7,2.5-6.2,6.2-6.2h61.6c1.7,0,3.3,0.7,4.4,1.9l0.1,0.1
		c1,1.2,1.6,2.6,1.6,4.2v16.6c0,1-0.1,2.1-0.4,3.2c-0.3,1.1-0.7,2.1-1.2,3l-6,11.6l-24.8,47.1l-2,3.7c-0.6,1.3-1.6,2.3-2.9,3.1
		c-1.2,0.7-2.6,1.1-3.9,1.1h-20V846.7z"/>
	<path class="st5" d="M-464.6,755.8c0.4,0.5,0.6,1,0.6,1.7v16.6c0,0.7-0.1,1.4-0.3,2.3c-0.2,0.8-0.5,1.6-0.8,2.1l-6,11.7l-24.8,47
		l-2,3.8c-0.3,0.6-0.7,1.1-1.4,1.4c-0.7,0.4-1.3,0.6-2,0.6h-20c-1.5,0-2-0.7-1.4-2l4.3-8.2l29.7-57.2h-8.1h-20.8h-10.2
		c-0.7,0-1.2-0.2-1.7-0.6s-0.7-1-0.7-1.6v-15.8c0-1.6,0.8-2.4,2.4-2.4h5.5h26.6h29.5C-465.5,755.1-465,755.4-464.6,755.8z"/>
</g>
<g>
	<g>
		<path class="st0" d="M-583.8,714.2c-6.3-1.1-9.5-1.7-15.8-3.1c0-2.2,0-3.3,0-5.4c5,1.1,7.5,1.6,12.6,2.6c0-1.9,0-2.9,0-4.8
			c-3.8-0.7-5.6-1.1-9.4-1.9c-0.9-0.2-1.6-0.6-2.2-1.3c-0.6-0.7-1-1.4-1-2.2c0-4,0-6,0-10c0-0.7,0.3-1.3,0.9-1.7
			c0.6-0.4,1.4-0.5,2.2-0.3c6.3,1.3,9.4,1.9,15.8,3c0,2.2,0,3.3,0,5.4c-5-0.8-7.6-1.3-12.6-2.3c0,1.8,0,2.7,0,4.5
			c3.8,0.8,5.6,1.1,9.4,1.8c0.9,0.2,1.6,0.5,2.2,1.2c0.6,0.6,0.9,1.3,0.9,2.1c0,4.1,0,6.1,0,10.2c0,0.8-0.3,1.4-0.9,1.8
			C-582.2,714.3-582.9,714.4-583.8,714.2z"/>
		<path class="st0" d="M-569.4,696.5c0,1.9,0,2.8,0,4.7c3.1,0.4,4.6,0.6,7.8,0.9c0,2.1,0,3.2,0,5.4c-3.1-0.3-4.7-0.5-7.7-0.9
			c0,1.8,0,2.8,0,4.6c5.6,0.7,8.4,1.1,14.1,1.6c0,2.1,0,3.2,0,5.4c-8.1-0.8-12.2-1.2-20.3-2.5c0-10.2,0-15.3-0.1-25.5
			c8.1,1.2,12.2,1.7,20.3,2.5c0,2.2,0,3.3,0,5.5C-561,697.5-563.8,697.2-569.4,696.5z"/>
		<path class="st0" d="M-532,719.4c-0.8-2.4-1.3-3.6-2.1-6.1c-4-0.1-6.1-0.2-10.1-0.5c-0.9,2.3-1.3,3.5-2.2,5.9
			c-2.6-0.2-4-0.3-6.6-0.5c3.5-9.9,5.3-14.8,8.9-24.8c3.9,0.2,5.9,0.3,9.8,0.5c3,8.5,5.9,17.1,8.9,25.6
			C-528.1,719.5-529.4,719.5-532,719.4z M-539.2,699.1c-1.2,3.4-1.9,5.1-3.1,8.4c2.5,0.1,3.7,0.2,6.2,0.3
			C-537.4,704.3-538,702.6-539.2,699.1z"/>
		<path class="st0" d="M-506.7,719.2c-6.4,0.3-9.6,0.4-16,0.4c0-2.2,0-3.3,0-5.4c5.1,0,7.7-0.1,12.8-0.2c0-1.9,0-2.9,0-4.8
			c-3.8,0.1-5.7,0.2-9.5,0.2c-0.9,0-1.6-0.2-2.3-0.8c-0.6-0.5-1-1.2-1-2c0-4,0-6,0-10c0-0.7,0.3-1.4,1-1.9c0.6-0.5,1.4-0.8,2.3-0.8
			c6.4-0.1,9.6-0.2,16-0.5c0,2.2,0,3.3,0,5.4c-5.1,0.3-7.6,0.4-12.7,0.5c0,1.8,0,2.7,0,4.5c3.8-0.1,5.7-0.1,9.5-0.3
			c0.9,0,1.6,0.2,2.2,0.7s0.9,1.1,0.9,1.9c0,4.1,0,6.1,0,10.2c0,0.8-0.3,1.4-0.9,2C-505.1,718.8-505.8,719.1-506.7,719.2z"/>
		<path class="st0" d="M-479.2,716.8c-6.2,0.8-9.3,1.1-15.5,1.6c-0.9,0.1-1.6-0.1-2.2-0.6s-0.9-1.1-0.9-1.9c0-8,0-12.1,0-20.1
			c0-0.7,0.3-1.4,0.9-2c0.6-0.6,1.4-0.9,2.2-1c6.2-0.5,9.3-0.8,15.5-1.6c0.9-0.1,1.6,0.1,2.2,0.5c0.6,0.4,0.9,1,0.9,1.8
			c0,8,0,12.1-0.1,20.1c0,0.8-0.3,1.5-0.9,2C-477.5,716.3-478.3,716.7-479.2,716.8z M-491.4,712.7c3.6-0.3,5.4-0.5,9.1-0.9
			c0-5.9,0-8.8,0-14.6c-3.6,0.4-5.4,0.6-9.1,0.9C-491.4,703.9-491.4,706.9-491.4,712.7z"/>
		<path class="st0" d="M-446.4,711.1c-2.2,0.5-3.3,0.7-5.5,1.2c-4.8-5.9-7.2-8.9-12-15c0,6.9,0,10.4-0.1,17.3
			c-2.5,0.4-3.8,0.6-6.3,1c0-10.2,0-15.3,0.1-25.5c3.6-0.6,5.5-0.9,9.1-1.5c3.4,4.3,5.1,6.4,8.4,10.6c0-4.9,0-7.3,0-12.2
			c2.5-0.5,3.8-0.8,6.3-1.4C-446.3,695.8-446.3,700.9-446.4,711.1z"/>
	</g>
</g>
<g>
	<defs>
		<rect id="SVGID_1_" x="-580.3" y="571.3" width="115.1" height="85.4"/>
	</defs>
	<clipPath id="SVGID_2_">
		<use xlink:href="#SVGID_1_"  style="overflow:visible;"/>
	</clipPath>
	<g class="st7">
		<g>
			<g>
				<g>
					<g>
						<g>
							<path class="st5" d="M-543.7,571.8c0.8,0.3,1.5,0.8,2,1.3c0.6,0.6,1,1.2,1.4,2c0.3,0.8,0.5,1.6,0.5,2.4v31.1
								c0,0.3-0.1,0.5-0.3,0.7c-0.2,0.2-0.4,0.3-0.7,0.3h-7.6c-0.3,0-0.5-0.1-0.7-0.3c-0.2-0.2-0.3-0.4-0.3-0.7v-28.3h-6.1v28.3
								c0,0.3-0.1,0.5-0.3,0.7c-0.2,0.2-0.4,0.3-0.7,0.3h-6.9c-0.3,0-0.5-0.1-0.7-0.3c-0.2-0.2-0.3-0.4-0.3-0.7v-28.3h-6.1v28.3
								c0,0.7-0.3,1-1,1h-7.6c-0.7,0-1-0.3-1-1v-36.4c0-0.7,0.3-1,1-1h33.1C-545.3,571.3-544.5,571.5-543.7,571.8z"/>
							<path class="st5" d="M-543.7,571.8c0.8,0.3,1.5,0.8,2,1.3c0.6,0.6,1,1.2,1.4,2c0.3,0.8,0.5,1.6,0.5,2.4v2.8l-9.7,0.1h-6.1
								h-8.9h-6.1l-9.7-0.1v-8c0-0.7,0.3-1,1-1h33.1C-545.3,571.3-544.5,571.5-543.7,571.8z"/>
						</g>
						<g>
							<path class="st5" d="M-506.5,600.4c0.3,0,0.6,0.1,0.8,0.3c0.2,0.2,0.3,0.4,0.3,0.7v7.2c0,0.3-0.1,0.5-0.3,0.7
								c-0.2,0.2-0.4,0.3-0.8,0.3h-26.1c-0.7,0-1.1-0.3-1.1-1v-36.3c0-0.7,0.4-1,1.1-1h8c0.7,0,1.1,0.3,1.1,1v27
								c0,0.3,0.1,0.5,0.3,0.7c0.2,0.2,0.5,0.3,0.8,0.3H-506.5z"/>
							<path class="st5" d="M-523.6,609.7h-9c-0.7,0-1.1-0.3-1.1-1v-36.3c0-0.7,0.4-1,1.1-1h8c0.7,0,1.1,0.3,1.1,1v27
								C-523.5,599.7-523.6,609.7-523.6,609.7z"/>
						</g>
						<g>
							<path class="st5" d="M-466.4,571.3c0.3,0,0.6,0.1,0.8,0.3c0.2,0.2,0.3,0.4,0.3,0.7v36.4c0,0.3-0.1,0.5-0.3,0.7
								c-0.2,0.2-0.5,0.3-0.8,0.3h-8.1c-0.3,0-0.6-0.1-0.8-0.3c-0.2-0.2-0.3-0.4-0.3-0.7V596c0-0.3-0.1-0.5-0.3-0.7
								c-0.2-0.2-0.4-0.3-0.8-0.3h-11.4c-0.3,0-0.6,0.1-0.8,0.3c-0.2,0.2-0.3,0.4-0.3,0.7v12.7c0,0.7-0.4,1-1.1,1h-8.1
								c-0.7,0-1.1-0.3-1.1-1v-36.4c0-0.7,0.4-1,1.1-1h8.1c0.7,0,1.1,0.3,1.1,1v12.3c0,0.7,0.4,1,1.1,1h11.4c0.3,0,0.6-0.1,0.8-0.3
								c0.2-0.2,0.3-0.4,0.3-0.7v-12.3c0-0.3,0.1-0.5,0.3-0.7c0.2-0.2,0.5-0.3,0.8-0.3H-466.4z"/>
							<path class="st5" d="M-489.2,596v12.7c0,0.7-0.4,1-1.1,1h-8.1c-0.7,0-1.1-0.3-1.1-1v-36.4c0-0.7,0.4-1,1.1-1h8.1
								c0.7,0,1.1,0.3,1.1,1v12.3C-489.2,585.4-489.2,595.8-489.2,596z"/>
							<path class="st5" d="M-466.4,571.3c0.3,0,0.6,0.1,0.8,0.3c0.2,0.2,0.3,0.4,0.3,0.7v36.4c0,0.3-0.1,0.5-0.3,0.7
								c-0.2,0.2-0.5,0.3-0.8,0.3h-8.1c-0.3,0-0.6-0.1-0.8-0.3c-0.2-0.2-0.3-0.4-0.3-0.7V596c0-0.3,0-11.1,0-11.4v-12.3
								c0-0.3,0.1-0.5,0.3-0.7c0.2-0.2,0.5-0.3,0.8-0.3H-466.4z"/>
						</g>
					</g>
				</g>
				<g>
					<g>
						<path class="st5" d="M-542,616.6c0,0.5-0.2,0.9-0.5,1.2c-0.4,0.3-0.9,0.4-1.5,0.4h-0.8v2.2h-0.4v-5.4h1.3
							C-542.7,615.1-542,615.6-542,616.6z M-544.9,617.9h0.7c0.6,0,1-0.1,1.3-0.3c0.3-0.2,0.4-0.5,0.4-1c0-0.4-0.1-0.7-0.4-0.9
							c-0.3-0.2-0.7-0.3-1.2-0.3h-0.9V617.9z"/>
						<path class="st5" d="M-536.3,617.8c0,0.9-0.2,1.5-0.6,2c-0.4,0.5-1,0.7-1.8,0.7c-0.8,0-1.3-0.2-1.8-0.7
							c-0.4-0.5-0.6-1.2-0.6-2c0-0.9,0.2-1.5,0.6-2c0.4-0.5,1-0.7,1.8-0.7c0.8,0,1.3,0.2,1.8,0.7
							C-536.5,616.2-536.3,616.9-536.3,617.8z M-540.7,617.8c0,0.8,0.2,1.4,0.5,1.8c0.3,0.4,0.8,0.6,1.5,0.6c0.6,0,1.1-0.2,1.5-0.6
							c0.3-0.4,0.5-1,0.5-1.8c0-0.8-0.2-1.4-0.5-1.8c-0.3-0.4-0.8-0.6-1.5-0.6c-0.6,0-1.1,0.2-1.5,0.6
							C-540.6,616.4-540.7,617-540.7,617.8z"/>
						<path class="st5" d="M-530.8,620.5h-0.3l-1.2-4.2c-0.1-0.3-0.2-0.6-0.2-0.8c0,0.2-0.1,0.5-0.2,0.7c-0.1,0.3-0.5,1.7-1.2,4.3
							h-0.3l-1.5-5.4h0.4l0.9,3.5c0,0.1,0.1,0.3,0.1,0.4c0,0.1,0.1,0.2,0.1,0.3c0,0.1,0,0.2,0.1,0.3c0,0.1,0,0.2,0.1,0.3
							c0.1-0.3,0.2-0.8,0.4-1.5l0.9-3.3h0.4l1.1,3.8c0.1,0.4,0.2,0.8,0.3,1c0-0.2,0.1-0.4,0.1-0.6c0.1-0.2,0.4-1.6,1.1-4.2h0.4
							L-530.8,620.5z"/>
						<path class="st5" d="M-525.4,620.5h-2.9v-5.4h2.9v0.3h-2.6v2h2.4v0.3h-2.4v2.3h2.6V620.5z"/>
						<path class="st5" d="M-523.8,618.1v2.4h-0.4v-5.4h1.3c0.7,0,1.2,0.1,1.5,0.4c0.3,0.2,0.5,0.6,0.5,1.1c0,0.4-0.1,0.7-0.3,0.9
							c-0.2,0.2-0.5,0.4-0.9,0.5l1.5,2.5h-0.5l-1.4-2.4H-523.8z M-523.8,617.8h1c0.5,0,0.8-0.1,1.1-0.3c0.3-0.2,0.4-0.5,0.4-0.9
							c0-0.4-0.1-0.7-0.4-0.9c-0.2-0.2-0.6-0.3-1.2-0.3h-0.9V617.8z"/>
						<path class="st5" d="M-516.7,620.5h-2.9v-5.4h2.9v0.3h-2.6v2h2.4v0.3h-2.4v2.3h2.6V620.5z"/>
						<path class="st5" d="M-511.4,617.7c0,0.9-0.2,1.6-0.7,2.1c-0.5,0.5-1.2,0.7-2.1,0.7h-1.3v-5.4h1.5c0.9,0,1.5,0.2,2,0.7
							C-511.7,616.2-511.4,616.9-511.4,617.7z M-511.8,617.8c0-0.8-0.2-1.4-0.6-1.7c-0.4-0.4-1-0.6-1.7-0.6h-1v4.7h0.9
							C-512.6,620.2-511.8,619.4-511.8,617.8z"/>
						<path class="st5" d="M-508.2,615.1h1.5c0.7,0,1.2,0.1,1.5,0.3c0.3,0.2,0.5,0.6,0.5,1c0,0.3-0.1,0.6-0.3,0.8
							c-0.2,0.2-0.5,0.3-0.8,0.4v0c0.4,0.1,0.7,0.2,1,0.4c0.2,0.2,0.3,0.5,0.3,0.9c0,0.5-0.2,0.9-0.5,1.1c-0.3,0.3-0.8,0.4-1.4,0.4
							h-1.7V615.1z M-507.9,617.5h1.2c0.5,0,0.9-0.1,1.1-0.3c0.2-0.2,0.3-0.4,0.3-0.8c0-0.4-0.1-0.6-0.4-0.8
							c-0.3-0.2-0.6-0.2-1.2-0.2h-1.1V617.5z M-507.9,617.8v2.3h1.3c1,0,1.5-0.4,1.5-1.2c0-0.7-0.5-1.1-1.6-1.1H-507.9z"/>
						<path class="st5" d="M-502.2,618l1.6-3h0.4l-1.8,3.3v2.1h-0.4v-2.1l-1.8-3.3h0.4L-502.2,618z"/>
					</g>
					<g>
						<g>
							<rect x="-498.1" y="617.9" class="st5" width="32.9" height="0.5"/>
						</g>
						<g>
							<rect x="-580.3" y="617.9" class="st5" width="32.9" height="0.5"/>
						</g>
					</g>
				</g>
			</g>
		</g>
		<g>
			<g>
				<path class="st5" d="M-570.7,637.4c-2.4,0-4.5,1-6,2.5c-1.5,1.5-2.5,3.7-2.5,6c0,2.4,1,4.5,2.5,6c1.5,1.5,3.7,2.5,6,2.5
					c2.4,0,4.5-1,6-2.5c1.5-1.5,2.5-3.7,2.5-6c0-2.4-1-4.5-2.5-6C-566.3,638.4-568.4,637.4-570.7,637.4 M-564,639.2L-564,639.2
					 M-570.7,636.4c5.3,0,9.6,4.3,9.6,9.6c0,5.3-4.3,9.6-9.6,9.6c-5.3,0-9.6-4.3-9.6-9.6C-580.3,640.7-576,636.4-570.7,636.4
					 M-577.5,639.2L-577.5,639.2"/>
				<path class="st5" d="M-575.3,645.9c0-0.6-0.4-0.9-0.9-0.9h-0.3v1.7h0.3C-575.7,646.7-575.3,646.5-575.3,645.9 M-569.6,646.5
					l-2.4,1.9l-2.2-1.7c-0.3,0.7-1.1,1.3-1.9,1.3h-1.8v-4.1h1.8c1,0,1.7,0.6,1.9,1.3l2.2-1.7l0.8,0.6l-2,1.6l0.4,0.3l2-1.6l0.8,0.6
					l-2,1.6l0.4,0.3l2-1.6v-1.4h1.4v2.9h1.4v1.2h-2.9V646.5z M-564.9,646.7h1.4v1.2h-2.9v-4.1h1.4V646.7z"/>
				<rect x="-546.1" y="636.4" class="st5" width="0.5" height="19.1"/>
			</g>
			<g>
				<g>
					<polygon class="st5" points="-524.1,645.7 -515.9,645.7 -515.9,638.4 -524.1,639.6 					"/>
					<polygon class="st5" points="-524.4,645.7 -524.4,639.6 -530.7,640.5 -530.7,645.7 					"/>
					<polygon class="st5" points="-524.4,646 -530.7,646 -530.7,651.2 -524.4,652.1 					"/>
					<polygon class="st5" points="-524.1,646 -524.1,652.1 -515.9,653.3 -515.9,646 					"/>
				</g>
				<g>
					<path class="st5" d="M-499.5,642c0,0.2-0.1,0.3-0.2,0.5c-0.1,0.1-0.3,0.2-0.5,0.2c-0.2,0-0.3-0.1-0.5-0.2
						c-0.1-0.1-0.2-0.3-0.2-0.5c0-0.2,0.1-0.3,0.2-0.5c0.1-0.1,0.3-0.2,0.5-0.2c0.2,0,0.3,0.1,0.5,0.2
						C-499.6,641.7-499.5,641.8-499.5,642z"/>
				</g>
				<g>
					<path class="st5" d="M-501.5,641.5l-2.5,8.8h-1.2l-2-7h0l-2,7h-1.2l-2.6-8.8h1.1l2,7.4h0l2.1-7.4h1l2,7.4h0l2-7.4H-501.5z"/>
					<path class="st5" d="M-499.6,650.3h-1V644h1V650.3z"/>
					<path class="st5" d="M-492.9,650.3h-1v-3.6c0-1.3-0.5-2-1.5-2c-0.5,0-0.9,0.2-1.2,0.6c-0.3,0.4-0.5,0.9-0.5,1.4v3.6h-1V644h1v1
						h0c0.5-0.8,1.2-1.2,2.1-1.2c0.7,0,1.2,0.2,1.6,0.7c0.4,0.5,0.5,1.1,0.5,1.9V650.3z"/>
					<path class="st5" d="M-486,650.3h-1v-1.1h0c-0.5,0.8-1.2,1.2-2.2,1.2c-0.8,0-1.4-0.3-1.9-0.9c-0.5-0.6-0.7-1.3-0.7-2.3
						c0-1,0.3-1.9,0.8-2.5c0.5-0.6,1.2-0.9,2.1-0.9c0.9,0,1.5,0.3,1.9,1h0V641h1V650.3z M-487,647.5v-0.9c0-0.5-0.2-1-0.5-1.3
						c-0.3-0.3-0.8-0.5-1.3-0.5c-0.6,0-1.1,0.2-1.4,0.7c-0.4,0.4-0.5,1.1-0.5,1.9c0,0.7,0.2,1.3,0.5,1.7c0.3,0.4,0.8,0.6,1.4,0.6
						c0.6,0,1-0.2,1.4-0.6C-487.2,648.6-487,648.1-487,647.5z"/>
					<path class="st5" d="M-478.6,647.2c0,1-0.3,1.8-0.8,2.4c-0.6,0.6-1.3,0.9-2.3,0.9c-0.9,0-1.7-0.3-2.2-0.9
						c-0.6-0.6-0.8-1.4-0.8-2.3c0-1,0.3-1.9,0.9-2.5c0.6-0.6,1.3-0.9,2.3-0.9c0.9,0,1.7,0.3,2.2,0.9
						C-478.8,645.3-478.6,646.1-478.6,647.2z M-479.6,647.2c0-0.8-0.2-1.4-0.5-1.8c-0.3-0.4-0.8-0.6-1.5-0.6c-0.6,0-1.2,0.2-1.5,0.6
						c-0.4,0.4-0.6,1-0.6,1.8c0,0.8,0.2,1.3,0.6,1.8c0.4,0.4,0.9,0.6,1.5,0.6c0.7,0,1.2-0.2,1.5-0.6
						C-479.8,648.6-479.6,648-479.6,647.2z"/>
					<path class="st5" d="M-469.5,644l-1.9,6.3h-1l-1.4-4.9h0l-1.5,4.9h-1l-1.9-6.3h1.1l1.4,5.1h0l1.5-5.1h0.9l1.4,5.1h0l1.4-5.1
						H-469.5z"/>
					<path class="st5" d="M-465.2,648.6c0,0.5-0.2,1-0.6,1.3c-0.4,0.3-1,0.5-1.7,0.5c-0.6,0-1.1-0.1-1.6-0.4V649
						c0.5,0.4,1,0.6,1.6,0.6c0.8,0,1.2-0.3,1.2-0.9c0-0.2-0.1-0.4-0.2-0.6c-0.2-0.1-0.5-0.4-1.1-0.6c-0.6-0.2-0.9-0.5-1.2-0.8
						c-0.2-0.3-0.3-0.6-0.3-1.1c0-0.5,0.2-1,0.6-1.3c0.4-0.3,0.9-0.5,1.6-0.5c0.5,0,0.9,0.1,1.3,0.3v1c-0.4-0.3-0.9-0.4-1.4-0.4
						c-0.3,0-0.6,0.1-0.8,0.2c-0.2,0.2-0.3,0.4-0.3,0.6c0,0.3,0.1,0.5,0.2,0.6c0.2,0.1,0.5,0.3,1,0.5c0.6,0.3,1,0.5,1.3,0.8
						C-465.3,647.9-465.2,648.2-465.2,648.6z"/>
				</g>
			</g>
		</g>
	</g>
</g>
</svg>
