<?xml version="1.0" encoding="utf-8"?>
<!-- Generator: Adobe Illustrator 19.2.1, SVG Export Plug-In . SVG Version: 6.00 Build 0)  -->
<svg version="1.1" id="Layer_1" xmlns="http://www.w3.org/2000/svg" xmlns:xlink="http://www.w3.org/1999/xlink" x="0px" y="0px"
	 viewBox="0 0 50 38.4" enable-background="new 0 0 50 38.4" xml:space="preserve">
<g>
	<path fill="#FFFFFF" d="M0,4.4c0,2.4,2,4.4,4.4,4.4h41.2c2.4,0,4.4-2,4.4-4.4S48,0,45.6,0H4.4C2,0,0,2,0,4.4C0,4.4,0,2,0,4.4z"/>
</g>
<g>
	<path fill="#FFFFFF" d="M0,34c0,2.4,2,4.4,4.4,4.4h41.2c2.4,0,4.4-2,4.4-4.4s-2-4.4-4.4-4.4H4.4C2,29.6,0,31.6,0,34
		C0,34,0,31.6,0,34z"/>
</g>
<g>
	<path fill="#FFFFFF" d="M0,19.2c0,2.4,2,4.4,4.4,4.4h41.2c2.4,0,4.4-2,4.4-4.4s-2-4.4-4.4-4.4H4.4C2,14.8,0,16.8,0,19.2
		C0,19.2,0,16.8,0,19.2z"/>
</g>
</svg>
